<svg xmlns="http://www.w3.org/2000/svg" width="680" height="500" viewBox="0 0 680 500"><style>.label{font:14px sans-serif;fill:#e5e7eb}.value{font:12px sans-serif;fill:#9ca3af}.axis{stroke:#374151}.series{fill:none;stroke-width:2}</style><rect width="100%" height="100%" fill="#111827"/><text x="40" y="20" class="label">CPU utilization (%)</text><text x="640" y="20" text-anchor="end" class="value">latest: 127.31</text><line x1="40" y1="55" x2="640" y2="55" class="axis"/><polyline points="40,14.4 65,47.5 90,22.4 115,53.3 140,32.7 165,46.6 190,32.7 215,50.2 240,30.7 265,46.3 290,33.8 315,47.3 340,10.0 365,52.1 390,29.9 415,55.0 440,32.7 465,46.8 490,30.5 515,51.5" stroke="#ef4444" class="series"/><text x="40" y="115" class="label">Throughput (M leases/s)</text><text x="640" y="115" text-anchor="end" class="value">latest: 13.53</text><line x1="40" y1="150" x2="640" y2="150" class="axis"/><polyline points="40,147.2 65,105.0 90,133.1 115,109.4 140,131.7 165,116.4 190,125.9 215,111.9 240,127.4 265,113.9 290,132.9 315,106.9 340,150.0 365,118.1 390,132.0 415,126.4 440,133.4 465,110.8 490,133.0 515,114.2" stroke="#22c55e" class="series"/><text x="40" y="210" class="label">RSS (KiB)</text><text x="640" y="210" text-anchor="end" class="value">latest: 760320.00</text><line x1="40" y1="245" x2="640" y2="245" class="axis"/><polyline points="40,245.0 65,226.7 90,245.0 115,221.8 140,231.9 165,211.5 190,231.9 215,202.8 240,231.9 265,217.6 290,231.9 315,209.3 340,231.9 365,200.0 390,245.0 415,223.3 440,245.0 465,232.3 490,245.0 515,222.4" stroke="#3b82f6" class="series"/><text x="40" y="305" class="label">Memory recovery drift (KiB)</text><text x="640" y="305" text-anchor="end" class="value">latest: 0.00</text><line x1="40" y1="340" x2="640" y2="340" class="axis"/><polyline points="40,340.0 65,340.0 90,340.0 115,340.0 140,340.0 165,340.0 190,340.0 215,340.0 240,340.0 265,340.0 290,340.0 315,340.0 340,340.0 365,340.0 390,340.0 415,340.0 440,340.0 465,340.0 490,340.0 515,340.0" stroke="#a855f7" class="series"/><text x="40" y="400" class="label">Context switches</text><text x="640" y="400" text-anchor="end" class="value">latest: 11708.00</text><line x1="40" y1="435" x2="640" y2="435" class="axis"/><polyline points="40,395.0 65,422.8 90,421.5 115,435.0 140,428.3 165,433.7 190,429.6 215,422.5 240,427.7 265,427.0 290,428.9 315,421.5 340,390.0 365,424.7 390,426.2 415,430.4 440,427.8 465,433.3 490,426.7 515,422.7" stroke="#f59e0b" class="series"/></svg>
