<svg xmlns="http://www.w3.org/2000/svg" width="680" height="500" viewBox="0 0 680 500"><style>.label{font:14px sans-serif;fill:#e5e7eb}.value{font:12px sans-serif;fill:#9ca3af}.axis{stroke:#374151}.series{fill:none;stroke-width:2}</style><rect width="100%" height="100%" fill="#111827"/><text x="40" y="20" class="label">CPU utilization (%)</text><text x="640" y="20" text-anchor="end" class="value">latest: 145.76</text><line x1="40" y1="55" x2="640" y2="55" class="axis"/><polyline points="40,29.2 65,46.9 90,33.2 115,49.5 140,10.0 165,42.6 190,30.3 215,55.0 240,31.4 265,47.0 290,31.1 315,52.8 340,28.5 365,52.2 390,33.1 415,52.9 440,19.1 465,42.6 490,30.7 515,43.3" stroke="#ef4444" class="series"/><text x="40" y="115" class="label">Throughput (M leases/s)</text><text x="640" y="115" text-anchor="end" class="value">latest: 11.61</text><line x1="40" y1="150" x2="640" y2="150" class="axis"/><polyline points="40,136.5 65,123.9 90,133.8 115,110.0 140,150.0 165,120.3 190,136.1 215,114.0 240,138.0 265,118.9 290,130.2 315,105.0 340,137.2 365,111.0 390,132.9 415,116.5 440,134.8 465,120.3 490,133.0 515,124.3" stroke="#22c55e" class="series"/><text x="40" y="210" class="label">RSS (KiB)</text><text x="640" y="210" text-anchor="end" class="value">latest: 761120.00</text><line x1="40" y1="245" x2="640" y2="245" class="axis"/><polyline points="40,245.0 65,205.0 90,245.0 115,210.8 140,244.9 165,202.2 190,245.0 215,207.5 240,245.0 265,206.6 290,244.9 315,201.1 340,244.9 365,205.3 390,245.0 415,218.7 440,245.0 465,207.0 490,245.0 515,200.0" stroke="#3b82f6" class="series"/><text x="40" y="305" class="label">Memory recovery drift (KiB)</text><text x="640" y="305" text-anchor="end" class="value">latest: 0.00</text><line x1="40" y1="340" x2="640" y2="340" class="axis"/><polyline points="40,340.0 65,340.0 90,340.0 115,340.0 140,340.0 165,340.0 190,340.0 215,340.0 240,340.0 265,340.0 290,340.0 315,340.0 340,340.0 365,340.0 390,340.0 415,340.0 440,340.0 465,340.0 490,340.0 515,340.0" stroke="#a855f7" class="series"/><text x="40" y="400" class="label">Context switches</text><text x="640" y="400" text-anchor="end" class="value">latest: 13285.00</text><line x1="40" y1="435" x2="640" y2="435" class="axis"/><polyline points="40,427.6 65,425.5 90,428.9 115,423.8 140,390.0 165,418.7 190,427.4 215,435.0 240,430.8 265,430.1 290,429.4 315,430.8 340,426.1 365,424.9 390,429.5 415,426.1 440,419.9 465,425.5 490,428.5 515,420.6" stroke="#f59e0b" class="series"/></svg>
