<svg xmlns="http://www.w3.org/2000/svg" width="680" height="500" viewBox="0 0 680 500"><style>.label{font:14px sans-serif;fill:#e5e7eb}.value{font:12px sans-serif;fill:#9ca3af}.axis{stroke:#374151}.series{fill:none;stroke-width:2}</style><rect width="100%" height="100%" fill="#111827"/><text x="40" y="20" class="label">CPU utilization (%)</text><text x="640" y="20" text-anchor="end" class="value">latest: 131.77</text><line x1="40" y1="55" x2="640" y2="55" class="axis"/><polyline points="40,10.0 65,55.0 90,15.4 115,44.7 140,13.2 165,54.7 190,11.9 215,46.1 240,12.0 265,34.0 290,11.4 315,50.7 340,14.0 365,42.1 390,12.9 415,44.0 440,15.6 465,37.7 490,15.0 515,43.7" stroke="#ef4444" class="series"/><text x="40" y="115" class="label">Throughput (M leases/s)</text><text x="640" y="115" text-anchor="end" class="value">latest: 15.40</text><line x1="40" y1="150" x2="640" y2="150" class="axis"/><polyline points="40,149.9 65,115.7 90,148.7 115,128.4 140,149.7 165,105.0 190,149.2 215,130.0 240,146.6 265,128.8 290,148.4 315,131.5 340,150.0 365,105.8 390,148.4 415,107.3 440,143.4 465,114.7 490,137.6 515,112.9" stroke="#22c55e" class="series"/><text x="40" y="210" class="label">RSS (KiB)</text><text x="640" y="210" text-anchor="end" class="value">latest: 741888.00</text><line x1="40" y1="245" x2="640" y2="245" class="axis"/><polyline points="40,245.0 65,200.0 90,245.0 115,200.9 140,245.0 165,202.4 190,245.0 215,221.2 240,245.0 265,207.2 290,244.9 315,212.5 340,245.0 365,206.6 390,244.9 415,206.4 440,244.9 465,206.2 490,245.0 515,206.5" stroke="#3b82f6" class="series"/><text x="40" y="305" class="label">Memory recovery drift (KiB)</text><text x="640" y="305" text-anchor="end" class="value">latest: 0.00</text><line x1="40" y1="340" x2="640" y2="340" class="axis"/><polyline points="40,340.0 65,340.0 90,340.0 115,340.0 140,340.0 165,340.0 190,340.0 215,340.0 240,340.0 265,340.0 290,340.0 315,340.0 340,340.0 365,340.0 390,340.0 415,340.0 440,340.0 465,340.0 490,340.0 515,340.0" stroke="#a855f7" class="series"/><text x="40" y="400" class="label">Context switches</text><text x="640" y="400" text-anchor="end" class="value">latest: 11136.00</text><line x1="40" y1="435" x2="640" y2="435" class="axis"/><polyline points="40,405.5 65,425.6 90,416.7 115,427.7 140,417.7 165,420.9 190,413.2 215,435.0 240,412.9 265,419.1 290,408.8 315,428.1 340,413.4 365,390.0 390,412.5 415,397.4 440,416.4 465,410.2 490,422.0 515,395.2" stroke="#f59e0b" class="series"/></svg>
