<?xml version="1.0" encoding="UTF-8"?>
<svg xmlns="http://www.w3.org/2000/svg" width="1000" height="460" viewBox="0 0 1000 460"><style>.title{font:15px sans-serif;font-weight:bold;fill:#f9fafb}.legend{font:12px sans-serif;fill:#d1d5db}.tick{font:10px sans-serif;fill:#9ca3af}.axis-label{font:12px sans-serif;fill:#9ca3af}.footer{font:10px sans-serif;fill:#6b7280}</style><rect width="100%" height="100%" fill="#111827"/><text x="30" y="30" class="title">Latency Distribution (density, log scale) - wrk -t12 -c400 -d10s (after 10s warmup, warmup discarded)</text><rect x="60" y="60" width="880" height="320" fill="#1f2937" rx="6" stroke="#374151"/><line x1="60.0" y1="60" x2="60.0" y2="380" stroke="#374151" stroke-dasharray="2,3"/><text x="60.0" y="396" text-anchor="middle" class="tick">0ms</text><line x1="192.9" y1="60" x2="192.9" y2="380" stroke="#374151" stroke-dasharray="2,3"/><text x="192.9" y="396" text-anchor="middle" class="tick">1ms</text><line x1="270.6" y1="60" x2="270.6" y2="380" stroke="#374151" stroke-dasharray="2,3"/><text x="270.6" y="396" text-anchor="middle" class="tick">2ms</text><line x1="403.4" y1="60" x2="403.4" y2="380" stroke="#374151" stroke-dasharray="2,3"/><text x="403.4" y="396" text-anchor="middle" class="tick">5ms</text><line x1="519.6" y1="60" x2="519.6" y2="380" stroke="#374151" stroke-dasharray="2,3"/><text x="519.6" y="396" text-anchor="middle" class="tick">10ms</text><line x1="643.5" y1="60" x2="643.5" y2="380" stroke="#374151" stroke-dasharray="2,3"/><text x="643.5" y="396" text-anchor="middle" class="tick">20ms</text><line x1="813.6" y1="60" x2="813.6" y2="380" stroke="#374151" stroke-dasharray="2,3"/><text x="813.6" y="396" text-anchor="middle" class="tick">50ms</text><line x1="944.5" y1="60" x2="944.5" y2="380" stroke="#374151" stroke-dasharray="2,3"/><text x="944.5" y="396" text-anchor="middle" class="tick">100ms</text><rect x="60" y="34" width="11" height="11" fill="#22c55e" rx="2"/><text x="76" y="43" class="legend">CWIST Classic</text><rect x="230" y="34" width="11" height="11" fill="#10b981" rx="2"/><text x="246" y="43" class="legend">CWIST</text><rect x="400" y="34" width="11" height="11" fill="#3b82f6" rx="2"/><text x="416" y="43" class="legend">Axum</text><rect x="570" y="34" width="11" height="11" fill="#06b6d4" rx="2"/><text x="586" y="43" class="legend">Gin</text><rect x="740" y="34" width="11" height="11" fill="#ef4444" rx="2"/><text x="756" y="43" class="legend">Spring Boot</text><polyline points="60.0,227.4 63.7,221.3 67.4,215.1 71.0,208.7 74.7,202.3 78.4,195.7 82.1,189.2 85.8,182.5 89.5,175.9 93.1,169.3 96.8,162.7 100.5,156.1 104.2,149.6 107.9,143.2 111.5,137.0 115.2,130.9 118.9,125.0 122.6,119.3 126.3,113.9 130.0,108.7 133.6,103.7 137.3,99.1 141.0,94.8 144.7,90.8 148.4,87.1 152.1,83.8 155.7,80.9 159.4,78.3 163.1,76.0 166.8,74.1 170.5,72.6 174.1,71.4 177.8,70.6 181.5,70.1 185.2,70.0 188.9,70.2 192.6,70.9 196.2,71.8 199.9,73.2 203.6,74.9 207.3,77.1 211.0,79.6 214.6,82.6 218.3,85.9 222.0,89.7 225.7,93.9 229.4,98.4 233.1,103.3 236.7,108.4 240.4,113.9 244.1,119.4 247.8,125.1 251.5,130.8 255.1,136.4 258.8,141.9 262.5,147.2 266.2,152.3 269.9,157.1 273.6,161.7 277.2,166.0 280.9,170.3 284.6,174.5 288.3,178.8 292.0,183.4 295.6,188.3 299.3,193.6 303.0,199.4 306.7,205.8 310.4,212.6 314.1,219.8 317.7,227.2 321.4,234.6 325.1,241.8 328.8,248.5 332.5,254.5 336.2,259.9 339.8,264.5 343.5,268.5 347.2,272.0 350.9,275.3 354.6,278.7 358.2,282.5 361.9,287.1 365.6,292.5 369.3,298.9 373.0,306.1 376.7,313.9 380.3,321.8 384.0,329.4 387.7,336.2 391.4,341.8 395.1,346.2 398.7,349.3 402.4,351.4 406.1,352.7 409.8,353.3 413.5,353.7 417.2,353.8 420.8,353.9 424.5,353.9 428.2,353.9 431.9,353.9 435.6,353.9 439.2,353.9 442.9,354.0 446.6,354.0 450.3,354.1 454.0,354.3 457.7,354.9 461.3,356.0 465.0,358.0 468.7,360.9 472.4,364.6 476.1,368.6 479.7,372.0 483.4,374.5 487.1,376.0 490.8,376.9 494.5,377.6 498.2,378.4 501.8,379.0 505.5,379.2 509.2,378.9 512.9,378.2 516.6,377.7 520.3,377.6 523.9,378.1 527.6,378.8 531.3,379.2 535.0,378.9 538.7,378.2 542.3,377.6 546.0,377.7 549.7,378.4 553.4,379.1 557.1,379.1 560.8,378.4 564.4,377.6 568.1,377.7 571.8,378.6 575.5,379.5 579.2,379.9 582.8,380.0 586.5,380.0 590.2,380.0 593.9,380.0 597.6,380.0 601.3,380.0 604.9,380.0 608.6,380.0 612.3,380.0 616.0,380.0 619.7,380.0 623.3,380.0 627.0,380.0 630.7,380.0 634.4,380.0 638.1,380.0 641.8,380.0 645.4,380.0 649.1,380.0 652.8,380.0 656.5,380.0 660.2,380.0 663.8,380.0 667.5,380.0 671.2,380.0 674.9,380.0 678.6,380.0 682.3,380.0 685.9,380.0 689.6,380.0 693.3,380.0 697.0,380.0 700.7,380.0 704.4,380.0 708.0,380.0 711.7,380.0 715.4,380.0 719.1,380.0 722.8,380.0 726.4,380.0 730.1,380.0 733.8,380.0 737.5,380.0 741.2,380.0 744.9,380.0 748.5,380.0 752.2,380.0 755.9,380.0 759.6,380.0 763.3,380.0 766.9,380.0 770.6,380.0 774.3,380.0 778.0,380.0 781.7,380.0 785.4,380.0 789.0,380.0 792.7,380.0 796.4,380.0 800.1,380.0 803.8,380.0 807.4,380.0 811.1,380.0 814.8,380.0 818.5,380.0 822.2,380.0 825.9,380.0 829.5,380.0 833.2,380.0 836.9,380.0 840.6,380.0 844.3,380.0 847.9,380.0 851.6,380.0 855.3,380.0 859.0,380.0 862.7,380.0 866.4,380.0 870.0,380.0 873.7,380.0 877.4,380.0 881.1,380.0 884.8,380.0 888.5,380.0 892.1,380.0 895.8,380.0 899.5,380.0 903.2,380.0 906.9,380.0 910.5,380.0 914.2,380.0 917.9,380.0 921.6,380.0 925.3,380.0 929.0,380.0 932.6,380.0 936.3,380.0 940.0,380.0" fill="none" stroke="#22c55e" stroke-width="2.2" opacity="0.9"/><polyline points="60.0,245.9 63.7,241.6 67.4,237.2 71.0,232.8 74.7,228.2 78.4,223.6 82.1,219.0 85.8,214.3 89.5,209.5 93.1,204.7 96.8,199.9 100.5,195.1 104.2,190.2 107.9,185.4 111.5,180.6 115.2,175.9 118.9,171.2 122.6,166.6 126.3,162.1 130.0,157.7 133.6,153.4 137.3,149.2 141.0,145.1 144.7,141.2 148.4,137.5 152.1,134.0 155.7,130.6 159.4,127.4 163.1,124.4 166.8,121.7 170.5,119.1 174.1,116.7 177.8,114.6 181.5,112.6 185.2,110.8 188.9,109.2 192.6,107.8 196.2,106.6 199.9,105.5 203.6,104.5 207.3,103.7 211.0,103.0 214.6,102.5 218.3,102.0 222.0,101.5 225.7,101.2 229.4,100.9 233.1,100.6 236.7,100.3 240.4,100.1 244.1,99.9 247.8,99.6 251.5,99.3 255.1,98.9 258.8,98.5 262.5,98.0 266.2,97.4 269.9,96.7 273.6,95.8 277.2,94.7 280.9,93.5 284.6,92.1 288.3,90.5 292.0,88.7 295.6,86.7 299.3,84.5 303.0,82.2 306.7,79.8 310.4,77.5 314.1,75.2 317.7,73.2 321.4,71.5 325.1,70.4 328.8,70.0 332.5,70.4 336.2,71.9 339.8,74.6 343.5,78.6 347.2,83.9 350.9,90.6 354.6,98.6 358.2,107.7 361.9,117.8 365.6,128.6 369.3,139.8 373.0,151.2 376.7,162.7 380.3,174.2 384.0,185.7 387.7,197.5 391.4,209.7 395.1,222.4 398.7,235.7 402.4,249.4 406.1,263.2 409.8,276.6 413.5,289.1 417.2,300.1 420.8,309.3 424.5,316.4 428.2,321.7 431.9,325.2 435.6,327.4 439.2,328.8 442.9,329.5 446.6,330.0 450.3,330.6 454.0,331.3 457.7,332.6 461.3,334.6 465.0,337.6 468.7,341.7 472.4,346.7 476.1,352.4 479.7,358.1 483.4,363.2 487.1,367.4 490.8,370.3 494.5,372.1 498.2,373.0 501.8,373.5 505.5,373.8 509.2,374.1 512.9,374.5 516.6,375.3 520.3,376.3 523.9,377.4 527.6,378.4 531.3,379.2 535.0,379.7 538.7,379.9 542.3,380.0 546.0,380.0 549.7,380.0 553.4,380.0 557.1,380.0 560.8,380.0 564.4,380.0 568.1,380.0 571.8,380.0 575.5,380.0 579.2,380.0 582.8,380.0 586.5,380.0 590.2,380.0 593.9,380.0 597.6,380.0 601.3,380.0 604.9,380.0 608.6,380.0 612.3,380.0 616.0,380.0 619.7,380.0 623.3,380.0 627.0,380.0 630.7,380.0 634.4,380.0 638.1,380.0 641.8,380.0 645.4,380.0 649.1,380.0 652.8,380.0 656.5,380.0 660.2,380.0 663.8,380.0 667.5,380.0 671.2,380.0 674.9,380.0 678.6,380.0 682.3,380.0 685.9,380.0 689.6,380.0 693.3,380.0 697.0,380.0 700.7,380.0 704.4,380.0 708.0,380.0 711.7,380.0 715.4,380.0 719.1,380.0 722.8,380.0 726.4,380.0 730.1,380.0 733.8,380.0 737.5,380.0 741.2,380.0 744.9,380.0 748.5,380.0 752.2,380.0 755.9,380.0 759.6,380.0 763.3,380.0 766.9,380.0 770.6,380.0 774.3,380.0 778.0,380.0 781.7,380.0 785.4,380.0 789.0,380.0 792.7,380.0 796.4,380.0 800.1,380.0 803.8,380.0 807.4,380.0 811.1,380.0 814.8,380.0 818.5,380.0 822.2,380.0 825.9,380.0 829.5,380.0 833.2,380.0 836.9,380.0 840.6,380.0 844.3,380.0 847.9,380.0 851.6,380.0 855.3,380.0 859.0,380.0 862.7,380.0 866.4,380.0 870.0,380.0 873.7,380.0 877.4,380.0 881.1,380.0 884.8,380.0 888.5,380.0 892.1,380.0 895.8,380.0 899.5,380.0 903.2,380.0 906.9,380.0 910.5,380.0 914.2,380.0 917.9,380.0 921.6,380.0 925.3,380.0 929.0,380.0 932.6,380.0 936.3,380.0 940.0,380.0" fill="none" stroke="#10b981" stroke-width="2.2" opacity="0.9"/><polyline points="60.0,252.3 63.7,248.8 67.4,245.3 71.0,241.7 74.7,238.0 78.4,234.2 82.1,230.4 85.8,226.6 89.5,222.7 93.1,218.7 96.8,214.7 100.5,210.7 104.2,206.7 107.9,202.7 111.5,198.6 115.2,194.6 118.9,190.6 122.6,186.6 126.3,182.6 130.0,178.7 133.6,174.9 137.3,171.1 141.0,167.4 144.7,163.7 148.4,160.2 152.1,156.7 155.7,153.4 159.4,150.2 163.1,147.2 166.8,144.2 170.5,141.5 174.1,138.8 177.8,136.3 181.5,134.0 185.2,131.9 188.9,129.9 192.6,128.0 196.2,126.3 199.9,124.8 203.6,123.4 207.3,122.2 211.0,121.1 214.6,120.1 218.3,119.2 222.0,118.5 225.7,117.8 229.4,117.3 233.1,116.8 236.7,116.4 240.4,116.0 244.1,115.7 247.8,115.5 251.5,115.3 255.1,115.1 258.8,114.9 262.5,114.7 266.2,114.5 269.9,114.3 273.6,114.0 277.2,113.7 280.9,113.3 284.6,112.8 288.3,112.2 292.0,111.5 295.6,110.6 299.3,109.6 303.0,108.3 306.7,106.8 310.4,105.1 314.1,103.1 317.7,100.7 321.4,98.1 325.1,95.3 328.8,92.2 332.5,88.9 336.2,85.5 339.8,82.0 343.5,78.7 347.2,75.7 350.9,73.1 354.6,71.2 358.2,70.1 361.9,70.0 365.6,71.1 369.3,73.7 373.0,77.6 376.7,83.1 380.3,90.1 384.0,98.5 387.7,108.1 391.4,118.6 395.1,129.8 398.7,141.3 402.4,153.1 406.1,164.8 409.8,176.5 413.5,188.2 417.2,200.1 420.8,212.3 424.5,225.0 428.2,238.2 431.9,251.6 435.6,265.0 439.2,277.7 442.9,289.4 446.6,299.5 450.3,307.8 454.0,314.2 457.7,318.7 461.3,321.8 465.0,323.7 468.7,325.0 472.4,325.9 476.1,326.8 479.7,328.1 483.4,330.1 487.1,333.0 490.8,337.0 494.5,342.0 498.2,348.0 501.8,354.2 505.5,360.1 509.2,365.2 512.9,369.0 516.6,371.6 520.3,373.1 523.9,373.9 527.6,374.2 531.3,374.4 535.0,374.5 538.7,374.7 542.3,375.1 546.0,375.7 549.7,376.5 553.4,377.6 557.1,378.5 560.8,379.3 564.4,379.7 568.1,379.9 571.8,380.0 575.5,380.0 579.2,380.0 582.8,380.0 586.5,380.0 590.2,380.0 593.9,380.0 597.6,380.0 601.3,380.0 604.9,380.0 608.6,380.0 612.3,380.0 616.0,380.0 619.7,380.0 623.3,380.0 627.0,380.0 630.7,380.0 634.4,380.0 638.1,380.0 641.8,380.0 645.4,380.0 649.1,380.0 652.8,380.0 656.5,380.0 660.2,380.0 663.8,380.0 667.5,380.0 671.2,380.0 674.9,380.0 678.6,380.0 682.3,380.0 685.9,380.0 689.6,380.0 693.3,380.0 697.0,380.0 700.7,380.0 704.4,380.0 708.0,380.0 711.7,380.0 715.4,380.0 719.1,380.0 722.8,380.0 726.4,380.0 730.1,380.0 733.8,380.0 737.5,380.0 741.2,380.0 744.9,380.0 748.5,380.0 752.2,380.0 755.9,380.0 759.6,380.0 763.3,380.0 766.9,380.0 770.6,380.0 774.3,380.0 778.0,380.0 781.7,380.0 785.4,380.0 789.0,380.0 792.7,380.0 796.4,380.0 800.1,380.0 803.8,380.0 807.4,380.0 811.1,380.0 814.8,380.0 818.5,380.0 822.2,380.0 825.9,380.0 829.5,380.0 833.2,380.0 836.9,380.0 840.6,380.0 844.3,380.0 847.9,380.0 851.6,380.0 855.3,380.0 859.0,380.0 862.7,380.0 866.4,380.0 870.0,380.0 873.7,380.0 877.4,380.0 881.1,380.0 884.8,380.0 888.5,380.0 892.1,380.0 895.8,380.0 899.5,380.0 903.2,380.0 906.9,380.0 910.5,380.0 914.2,380.0 917.9,380.0 921.6,380.0 925.3,380.0 929.0,380.0 932.6,380.0 936.3,380.0 940.0,380.0" fill="none" stroke="#3b82f6" stroke-width="2.2" opacity="0.9"/><polyline points="60.0,218.8 63.7,217.0 67.4,215.2 71.0,213.4 74.7,211.5 78.4,209.6 82.1,207.6 85.8,205.6 89.5,203.6 93.1,201.5 96.8,199.5 100.5,197.3 104.2,195.1 107.9,192.9 111.5,190.7 115.2,188.4 118.9,186.1 122.6,183.8 126.3,181.4 130.0,179.0 133.6,176.5 137.3,174.1 141.0,171.5 144.7,169.0 148.4,166.4 152.1,163.8 155.7,161.2 159.4,158.6 163.1,155.9 166.8,153.2 170.5,150.5 174.1,147.8 177.8,145.1 181.5,142.3 185.2,139.6 188.9,136.8 192.6,134.1 196.2,131.3 199.9,128.5 203.6,125.8 207.3,123.0 211.0,120.3 214.6,117.6 218.3,114.9 222.0,112.3 225.7,109.6 229.4,107.1 233.1,104.5 236.7,102.0 240.4,99.6 244.1,97.2 247.8,94.9 251.5,92.6 255.1,90.4 258.8,88.3 262.5,86.3 266.2,84.4 269.9,82.5 273.6,80.8 277.2,79.2 280.9,77.7 284.6,76.3 288.3,75.0 292.0,73.9 295.6,72.9 299.3,72.0 303.0,71.3 306.7,70.7 310.4,70.3 314.1,70.1 317.7,70.0 321.4,70.1 325.1,70.4 328.8,70.9 332.5,71.5 336.2,72.4 339.8,73.5 343.5,74.8 347.2,76.3 350.9,78.0 354.6,80.0 358.2,82.2 361.9,84.6 365.6,87.3 369.3,90.2 373.0,93.3 376.7,96.7 380.3,100.4 384.0,104.2 387.7,108.2 391.4,112.5 395.1,116.9 398.7,121.5 402.4,126.3 406.1,131.1 409.8,136.0 413.5,141.0 417.2,146.0 420.8,150.9 424.5,155.8 428.2,160.6 431.9,165.3 435.6,169.8 439.2,174.2 442.9,178.3 446.6,182.2 450.3,186.0 454.0,189.5 457.7,192.9 461.3,196.2 465.0,199.3 468.7,202.5 472.4,205.6 476.1,208.9 479.7,212.2 483.4,215.8 487.1,219.7 490.8,223.9 494.5,228.5 498.2,233.4 501.8,238.6 505.5,244.2 509.2,250.0 512.9,255.9 516.6,261.9 520.3,267.9 523.9,273.6 527.6,279.0 531.3,284.0 535.0,288.5 538.7,292.5 542.3,295.8 546.0,298.6 549.7,300.8 553.4,302.5 557.1,303.9 560.8,304.9 564.4,305.8 568.1,306.6 571.8,307.5 575.5,308.5 579.2,309.9 582.8,311.8 586.5,314.2 590.2,317.3 593.9,321.0 597.6,325.5 601.3,330.4 604.9,335.8 608.6,341.2 612.3,346.4 616.0,351.1 619.7,355.1 623.3,358.3 627.0,360.7 630.7,362.4 634.4,363.5 638.1,364.1 641.8,364.5 645.4,364.6 649.1,364.7 652.8,364.7 656.5,364.8 660.2,364.8 663.8,364.8 667.5,364.8 671.2,364.8 674.9,364.8 678.6,364.8 682.3,364.8 685.9,364.8 689.6,364.8 693.3,364.8 697.0,364.8 700.7,364.8 704.4,364.8 708.0,364.8 711.7,364.8 715.4,364.8 719.1,364.8 722.8,364.8 726.4,364.8 730.1,364.9 733.8,365.2 737.5,365.8 741.2,367.2 744.9,369.2 748.5,371.8 752.2,374.2 755.9,375.8 759.6,376.8 763.3,377.5 766.9,378.2 770.6,378.8 774.3,379.0 778.0,378.6 781.7,378.0 785.4,377.7 789.0,378.2 792.7,378.8 796.4,379.0 800.1,378.5 803.8,377.8 807.4,377.8 811.1,378.5 814.8,379.0 818.5,378.7 822.2,377.9 825.9,377.8 829.5,378.7 833.2,379.6 836.9,379.9 840.6,380.0 844.3,380.0 847.9,380.0 851.6,380.0 855.3,380.0 859.0,380.0 862.7,380.0 866.4,380.0 870.0,380.0 873.7,380.0 877.4,380.0 881.1,380.0 884.8,380.0 888.5,380.0 892.1,380.0 895.8,380.0 899.5,380.0 903.2,380.0 906.9,380.0 910.5,380.0 914.2,380.0 917.9,380.0 921.6,380.0 925.3,380.0 929.0,380.0 932.6,380.0 936.3,380.0 940.0,380.0" fill="none" stroke="#06b6d4" stroke-width="2.2" opacity="0.9"/><polyline points="60.0,312.9 63.7,311.9 67.4,310.9 71.0,309.9 74.7,308.9 78.4,307.8 82.1,306.7 85.8,305.6 89.5,304.5 93.1,303.3 96.8,302.1 100.5,301.0 104.2,299.7 107.9,298.5 111.5,297.3 115.2,296.0 118.9,294.7 122.6,293.4 126.3,292.1 130.0,290.7 133.6,289.4 137.3,288.0 141.0,286.6 144.7,285.2 148.4,283.8 152.1,282.3 155.7,280.9 159.4,279.4 163.1,278.0 166.8,276.5 170.5,275.1 174.1,273.6 177.8,272.1 181.5,270.7 185.2,269.2 188.9,267.7 192.6,266.3 196.2,264.9 199.9,263.4 203.6,262.0 207.3,260.6 211.0,259.2 214.6,257.9 218.3,256.6 222.0,255.3 225.7,254.0 229.4,252.8 233.1,251.5 236.7,250.4 240.4,249.2 244.1,248.2 247.8,247.1 251.5,246.1 255.1,245.1 258.8,244.2 262.5,243.3 266.2,242.5 269.9,241.7 273.6,241.0 277.2,240.3 280.9,239.7 284.6,239.1 288.3,238.6 292.0,238.1 295.6,237.6 299.3,237.2 303.0,236.9 306.7,236.5 310.4,236.2 314.1,236.0 317.7,235.8 321.4,235.6 325.1,235.4 328.8,235.2 332.5,235.1 336.2,235.0 339.8,234.9 343.5,234.8 347.2,234.8 350.9,234.7 354.6,234.7 358.2,234.6 361.9,234.6 365.6,234.6 369.3,234.6 373.0,234.6 376.7,234.6 380.3,234.5 384.0,234.5 387.7,234.5 391.4,234.5 395.1,234.5 398.7,234.4 402.4,234.4 406.1,234.3 409.8,234.2 413.5,234.0 417.2,233.8 420.8,233.5 424.5,233.1 428.2,232.5 431.9,231.7 435.6,230.7 439.2,229.3 442.9,227.5 446.6,225.2 450.3,222.2 454.0,218.3 457.7,213.5 461.3,207.6 465.0,200.5 468.7,192.0 472.4,182.1 476.1,170.8 479.7,158.3 483.4,144.7 487.1,130.6 490.8,116.5 494.5,102.9 498.2,90.7 501.8,80.6 505.5,73.5 509.2,70.0 512.9,70.7 516.6,75.9 520.3,85.6 523.9,99.6 527.6,117.4 531.3,138.4 535.0,161.7 538.7,186.3 542.3,211.4 546.0,235.8 549.7,258.9 553.4,279.7 557.1,297.9 560.8,313.0 564.4,324.9 568.1,333.9 571.8,340.3 575.5,344.6 579.2,347.3 582.8,348.8 586.5,349.7 590.2,350.1 593.9,350.3 597.6,350.4 601.3,350.5 604.9,350.6 608.6,350.8 612.3,351.1 616.0,351.8 619.7,353.0 623.3,354.7 627.0,357.3 630.7,360.6 634.4,364.4 638.1,368.4 641.8,372.1 645.4,375.1 649.1,377.3 652.8,378.7 656.5,379.4 660.2,379.7 663.8,379.6 667.5,379.3 671.2,378.8 674.9,378.3 678.6,377.9 682.3,377.8 685.9,378.1 689.6,378.7 693.3,379.3 697.0,379.7 700.7,379.9 704.4,380.0 708.0,380.0 711.7,380.0 715.4,380.0 719.1,380.0 722.8,380.0 726.4,380.0 730.1,380.0 733.8,379.9 737.5,379.6 741.2,379.1 744.9,378.3 748.5,377.8 752.2,378.1 755.9,378.9 759.6,379.5 763.3,379.9 766.9,380.0 770.6,380.0 774.3,380.0 778.0,380.0 781.7,380.0 785.4,380.0 789.0,379.8 792.7,379.2 796.4,378.2 800.1,377.8 803.8,378.6 807.4,379.6 811.1,379.9 814.8,380.0 818.5,380.0 822.2,380.0 825.9,380.0 829.5,379.9 833.2,379.3 836.9,378.2 840.6,378.0 844.3,379.2 847.9,379.9 851.6,380.0 855.3,380.0 859.0,380.0 862.7,380.0 866.4,380.0 870.0,380.0 873.7,380.0 877.4,380.0 881.1,380.0 884.8,380.0 888.5,380.0 892.1,380.0 895.8,380.0 899.5,380.0 903.2,380.0 906.9,380.0 910.5,380.0 914.2,380.0 917.9,380.0 921.6,380.0 925.3,380.0 929.0,380.0 932.6,380.0 936.3,380.0 940.0,380.0" fill="none" stroke="#ef4444" stroke-width="2.2" opacity="0.9"/><text x="500" y="414" text-anchor="middle" class="axis-label">Latency (ms, log scale)</text><text x="30" y="220" text-anchor="middle" class="axis-label" transform="rotate(-90 30 220)">Relative density</text><text x="30" y="446" class="footer">Reconstructed from wrk percentiles (min/p50/p75/p90/p99/p99.9/p99.99/p99.999/max), not raw per-request samples - shape is representative, not exact.</text></svg>
