<?xml version="1.0" encoding="UTF-8"?>
<svg xmlns="http://www.w3.org/2000/svg" width="1000" height="460" viewBox="0 0 1000 460"><style>.title{font:15px sans-serif;font-weight:bold;fill:#f9fafb}.legend{font:12px sans-serif;fill:#d1d5db}.tick{font:10px sans-serif;fill:#9ca3af}.axis-label{font:12px sans-serif;fill:#9ca3af}.footer{font:10px sans-serif;fill:#6b7280}</style><rect width="100%" height="100%" fill="#111827"/><text x="30" y="30" class="title">Latency Distribution (density, log scale) - wrk -t12 -c400 -d10s (after 10s warmup, warmup discarded)</text><rect x="60" y="60" width="880" height="320" fill="#1f2937" rx="6" stroke="#374151"/><line x1="60.0" y1="60" x2="60.0" y2="380" stroke="#374151" stroke-dasharray="2,3"/><text x="60.0" y="396" text-anchor="middle" class="tick">0ms</text><line x1="208.0" y1="60" x2="208.0" y2="380" stroke="#374151" stroke-dasharray="2,3"/><text x="208.0" y="396" text-anchor="middle" class="tick">1ms</text><line x1="294.6" y1="60" x2="294.6" y2="380" stroke="#374151" stroke-dasharray="2,3"/><text x="294.6" y="396" text-anchor="middle" class="tick">2ms</text><line x1="442.6" y1="60" x2="442.6" y2="380" stroke="#374151" stroke-dasharray="2,3"/><text x="442.6" y="396" text-anchor="middle" class="tick">5ms</text><line x1="572.1" y1="60" x2="572.1" y2="380" stroke="#374151" stroke-dasharray="2,3"/><text x="572.1" y="396" text-anchor="middle" class="tick">10ms</text><line x1="710.2" y1="60" x2="710.2" y2="380" stroke="#374151" stroke-dasharray="2,3"/><text x="710.2" y="396" text-anchor="middle" class="tick">20ms</text><line x1="899.6" y1="60" x2="899.6" y2="380" stroke="#374151" stroke-dasharray="2,3"/><text x="899.6" y="396" text-anchor="middle" class="tick">50ms</text><rect x="60" y="34" width="11" height="11" fill="#22c55e" rx="2"/><text x="76" y="43" class="legend">CWIST Classic</text><rect x="230" y="34" width="11" height="11" fill="#10b981" rx="2"/><text x="246" y="43" class="legend">CWIST</text><rect x="400" y="34" width="11" height="11" fill="#f97316" rx="2"/><text x="416" y="43" class="legend">Actix</text><rect x="570" y="34" width="11" height="11" fill="#3b82f6" rx="2"/><text x="586" y="43" class="legend">Axum</text><rect x="740" y="34" width="11" height="11" fill="#06b6d4" rx="2"/><text x="756" y="43" class="legend">Gin</text><rect x="910" y="34" width="11" height="11" fill="#ef4444" rx="2"/><text x="926" y="43" class="legend">Spring Boot</text><polyline points="60.0,230.3 63.7,222.8 67.4,215.2 71.0,207.4 74.7,199.6 78.4,191.7 82.1,183.9 85.8,176.0 89.5,168.3 93.1,160.6 96.8,153.1 100.5,145.7 104.2,138.6 107.9,131.8 111.5,125.2 115.2,118.9 118.9,113.0 122.6,107.5 126.3,102.3 130.0,97.6 133.6,93.2 137.3,89.3 141.0,85.8 144.7,82.7 148.4,79.9 152.1,77.6 155.7,75.6 159.4,73.9 163.1,72.6 166.8,71.5 170.5,70.8 174.1,70.3 177.8,70.0 181.5,70.0 185.2,70.2 188.9,70.7 192.6,71.4 196.2,72.3 199.9,73.5 203.6,75.0 207.3,76.7 211.0,78.7 214.6,81.0 218.3,83.6 222.0,86.5 225.7,89.6 229.4,92.9 233.1,96.4 236.7,100.1 240.4,103.9 244.1,107.8 247.8,111.7 251.5,115.5 255.1,119.4 258.8,123.4 262.5,127.3 266.2,131.5 269.9,135.8 273.6,140.5 277.2,145.7 280.9,151.4 284.6,157.8 288.3,164.9 292.0,172.7 295.6,181.0 299.3,189.8 303.0,198.7 306.7,207.6 310.4,216.1 314.1,224.1 317.7,231.3 321.4,237.8 325.1,243.7 328.8,249.1 332.5,254.3 336.2,259.6 339.8,265.5 343.5,272.3 347.2,280.0 350.9,288.7 354.6,298.1 358.2,308.0 361.9,317.7 365.6,326.8 369.3,334.7 373.0,341.2 376.7,346.2 380.3,349.8 384.0,352.1 387.7,353.6 391.4,354.4 395.1,354.8 398.7,355.0 402.4,355.1 406.1,355.1 409.8,355.1 413.5,355.1 417.2,355.1 420.8,355.1 424.5,355.1 428.2,355.1 431.9,355.1 435.6,355.1 439.2,355.1 442.9,355.2 446.6,355.2 450.3,355.4 454.0,355.8 457.7,356.7 461.3,358.3 465.0,360.7 468.7,364.1 472.4,367.9 476.1,371.4 479.7,374.2 483.4,375.8 487.1,376.5 490.8,376.9 494.5,377.5 498.2,378.2 501.8,379.0 505.5,379.4 509.2,379.4 512.9,379.0 516.6,378.3 520.3,377.5 523.9,377.3 527.6,377.7 531.3,378.5 535.0,379.2 538.7,379.5 542.3,379.1 546.0,378.3 549.7,377.5 553.4,377.3 557.1,378.1 560.8,379.0 564.4,379.5 568.1,379.2 571.8,378.3 575.5,377.4 579.2,377.4 582.8,378.4 586.5,379.4 590.2,379.9 593.9,380.0 597.6,380.0 601.3,380.0 604.9,380.0 608.6,380.0 612.3,380.0 616.0,380.0 619.7,380.0 623.3,380.0 627.0,380.0 630.7,380.0 634.4,380.0 638.1,380.0 641.8,380.0 645.4,380.0 649.1,380.0 652.8,380.0 656.5,380.0 660.2,380.0 663.8,380.0 667.5,380.0 671.2,380.0 674.9,380.0 678.6,380.0 682.3,380.0 685.9,380.0 689.6,380.0 693.3,380.0 697.0,380.0 700.7,380.0 704.4,380.0 708.0,380.0 711.7,380.0 715.4,380.0 719.1,380.0 722.8,380.0 726.4,380.0 730.1,380.0 733.8,380.0 737.5,380.0 741.2,380.0 744.9,380.0 748.5,380.0 752.2,380.0 755.9,380.0 759.6,380.0 763.3,380.0 766.9,380.0 770.6,380.0 774.3,380.0 778.0,380.0 781.7,380.0 785.4,380.0 789.0,380.0 792.7,380.0 796.4,380.0 800.1,380.0 803.8,380.0 807.4,380.0 811.1,380.0 814.8,380.0 818.5,380.0 822.2,380.0 825.9,380.0 829.5,380.0 833.2,380.0 836.9,380.0 840.6,380.0 844.3,380.0 847.9,380.0 851.6,380.0 855.3,380.0 859.0,380.0 862.7,380.0 866.4,380.0 870.0,380.0 873.7,380.0 877.4,380.0 881.1,380.0 884.8,380.0 888.5,380.0 892.1,380.0 895.8,380.0 899.5,380.0 903.2,380.0 906.9,380.0 910.5,380.0 914.2,380.0 917.9,380.0 921.6,380.0 925.3,380.0 929.0,380.0 932.6,380.0 936.3,380.0 940.0,380.0" fill="none" stroke="#22c55e" stroke-width="2.2" opacity="0.9"/><polyline points="60.0,228.5 63.7,223.6 67.4,218.6 71.0,213.5 74.7,208.4 78.4,203.1 82.1,197.9 85.8,192.6 89.5,187.2 93.1,181.8 96.8,176.4 100.5,171.1 104.2,165.7 107.9,160.3 111.5,155.0 115.2,149.8 118.9,144.6 122.6,139.6 126.3,134.6 130.0,129.7 133.6,125.0 137.3,120.4 141.0,116.0 144.7,111.7 148.4,107.7 152.1,103.8 155.7,100.1 159.4,96.7 163.1,93.4 166.8,90.4 170.5,87.6 174.1,85.0 177.8,82.7 181.5,80.5 185.2,78.6 188.9,76.9 192.6,75.4 196.2,74.1 199.9,73.0 203.6,72.0 207.3,71.3 211.0,70.7 214.6,70.3 218.3,70.1 222.0,70.0 225.7,70.1 229.4,70.3 233.1,70.7 236.7,71.3 240.4,72.0 244.1,72.9 247.8,74.0 251.5,75.3 255.1,76.7 258.8,78.4 262.5,80.3 266.2,82.3 269.9,84.6 273.6,87.1 277.2,89.8 280.9,92.6 284.6,95.6 288.3,98.8 292.0,102.0 295.6,105.3 299.3,108.7 303.0,112.0 306.7,115.4 310.4,118.8 314.1,122.1 317.7,125.4 321.4,128.7 325.1,132.1 328.8,135.6 332.5,139.2 336.2,143.1 339.8,147.3 343.5,151.8 347.2,156.8 350.9,162.2 354.6,168.1 358.2,174.4 361.9,181.1 365.6,188.0 369.3,194.9 373.0,201.9 376.7,208.6 380.3,215.2 384.0,221.4 387.7,227.3 391.4,233.0 395.1,238.6 398.7,244.4 402.4,250.6 406.1,257.3 409.8,264.7 413.5,272.9 417.2,281.7 420.8,291.1 424.5,300.7 428.2,310.1 431.9,319.0 435.6,326.9 439.2,333.6 442.9,339.0 446.6,343.1 450.3,346.0 454.0,348.0 457.7,349.2 461.3,349.9 465.0,350.3 468.7,350.5 472.4,350.6 476.1,350.6 479.7,350.6 483.4,350.6 487.1,350.6 490.8,350.6 494.5,350.7 498.2,350.7 501.8,350.7 505.5,350.8 509.2,351.1 512.9,351.6 516.6,352.6 520.3,354.2 523.9,356.5 527.6,359.7 531.3,363.5 535.0,367.5 538.7,371.1 542.3,373.8 546.0,375.5 549.7,376.3 553.4,376.8 557.1,377.2 560.8,377.8 564.4,378.5 568.1,379.1 571.8,379.5 575.5,379.5 579.2,379.3 582.8,378.7 586.5,378.0 590.2,377.4 593.9,377.3 597.6,377.8 601.3,378.6 604.9,379.2 608.6,379.5 612.3,379.4 616.0,378.8 619.7,377.9 623.3,377.3 627.0,377.4 630.7,378.2 634.4,379.0 638.1,379.5 641.8,379.4 645.4,378.7 649.1,377.7 652.8,377.3 656.5,377.8 660.2,378.8 663.8,379.6 667.5,379.9 671.2,380.0 674.9,380.0 678.6,380.0 682.3,380.0 685.9,380.0 689.6,380.0 693.3,380.0 697.0,380.0 700.7,380.0 704.4,380.0 708.0,380.0 711.7,380.0 715.4,380.0 719.1,380.0 722.8,380.0 726.4,380.0 730.1,380.0 733.8,380.0 737.5,380.0 741.2,380.0 744.9,380.0 748.5,380.0 752.2,380.0 755.9,380.0 759.6,380.0 763.3,380.0 766.9,380.0 770.6,380.0 774.3,380.0 778.0,380.0 781.7,380.0 785.4,380.0 789.0,380.0 792.7,380.0 796.4,380.0 800.1,380.0 803.8,380.0 807.4,380.0 811.1,380.0 814.8,380.0 818.5,380.0 822.2,380.0 825.9,380.0 829.5,380.0 833.2,380.0 836.9,380.0 840.6,380.0 844.3,380.0 847.9,380.0 851.6,380.0 855.3,380.0 859.0,380.0 862.7,380.0 866.4,380.0 870.0,380.0 873.7,380.0 877.4,380.0 881.1,380.0 884.8,380.0 888.5,380.0 892.1,380.0 895.8,380.0 899.5,380.0 903.2,380.0 906.9,380.0 910.5,380.0 914.2,380.0 917.9,380.0 921.6,380.0 925.3,380.0 929.0,380.0 932.6,380.0 936.3,380.0 940.0,380.0" fill="none" stroke="#10b981" stroke-width="2.2" opacity="0.9"/><polyline points="60.0,229.8 63.7,224.7 67.4,219.6 71.0,214.4 74.7,209.1 78.4,203.7 82.1,198.3 85.8,192.9 89.5,187.4 93.1,181.9 96.8,176.4 100.5,170.9 104.2,165.4 107.9,160.0 111.5,154.6 115.2,149.3 118.9,144.1 122.6,138.9 126.3,133.9 130.0,129.1 133.6,124.4 137.3,119.8 141.0,115.4 144.7,111.2 148.4,107.2 152.1,103.5 155.7,99.9 159.4,96.5 163.1,93.4 166.8,90.5 170.5,87.8 174.1,85.4 177.8,83.1 181.5,81.1 185.2,79.3 188.9,77.7 192.6,76.3 196.2,75.0 199.9,74.0 203.6,73.1 207.3,72.3 211.0,71.6 214.6,71.1 218.3,70.7 222.0,70.4 225.7,70.2 229.4,70.1 233.1,70.0 236.7,70.0 240.4,70.1 244.1,70.3 247.8,70.5 251.5,70.8 255.1,71.2 258.8,71.7 262.5,72.2 266.2,72.8 269.9,73.5 273.6,74.3 277.2,75.2 280.9,76.2 284.6,77.3 288.3,78.5 292.0,79.8 295.6,81.1 299.3,82.5 303.0,84.1 306.7,85.7 310.4,87.4 314.1,89.3 317.7,91.3 321.4,93.5 325.1,96.0 328.8,98.8 332.5,102.0 336.2,105.6 339.8,109.8 343.5,114.5 347.2,119.9 350.9,125.9 354.6,132.4 358.2,139.5 361.9,147.1 365.6,154.9 369.3,162.9 373.0,171.0 376.7,179.1 380.3,187.1 384.0,195.0 387.7,203.0 391.4,211.2 395.1,219.8 398.7,228.9 402.4,238.7 406.1,249.2 409.8,260.2 413.5,271.4 417.2,282.6 420.8,293.3 424.5,303.1 428.2,311.6 431.9,318.7 435.6,324.2 439.2,328.3 442.9,331.1 446.6,333.0 450.3,334.1 454.0,334.8 457.7,335.1 461.3,335.4 465.0,335.6 468.7,335.8 472.4,336.3 476.1,337.1 479.7,338.4 483.4,340.3 487.1,343.1 490.8,346.8 494.5,351.1 498.2,355.9 501.8,360.7 505.5,365.1 509.2,368.7 512.9,371.3 516.6,373.0 520.3,374.0 523.9,374.5 527.6,374.7 531.3,374.8 535.0,374.9 538.7,375.0 542.3,375.1 546.0,375.4 549.7,376.0 553.4,376.7 557.1,377.7 560.8,378.5 564.4,379.2 568.1,379.7 571.8,379.9 575.5,380.0 579.2,380.0 582.8,380.0 586.5,380.0 590.2,380.0 593.9,380.0 597.6,380.0 601.3,380.0 604.9,380.0 608.6,380.0 612.3,380.0 616.0,380.0 619.7,380.0 623.3,380.0 627.0,380.0 630.7,380.0 634.4,380.0 638.1,380.0 641.8,380.0 645.4,380.0 649.1,380.0 652.8,380.0 656.5,380.0 660.2,380.0 663.8,380.0 667.5,380.0 671.2,380.0 674.9,380.0 678.6,380.0 682.3,380.0 685.9,380.0 689.6,380.0 693.3,380.0 697.0,380.0 700.7,380.0 704.4,380.0 708.0,380.0 711.7,380.0 715.4,380.0 719.1,380.0 722.8,380.0 726.4,380.0 730.1,380.0 733.8,380.0 737.5,380.0 741.2,380.0 744.9,380.0 748.5,380.0 752.2,380.0 755.9,380.0 759.6,380.0 763.3,380.0 766.9,380.0 770.6,380.0 774.3,380.0 778.0,380.0 781.7,380.0 785.4,380.0 789.0,380.0 792.7,380.0 796.4,380.0 800.1,380.0 803.8,380.0 807.4,380.0 811.1,380.0 814.8,380.0 818.5,380.0 822.2,380.0 825.9,380.0 829.5,380.0 833.2,380.0 836.9,380.0 840.6,380.0 844.3,380.0 847.9,380.0 851.6,380.0 855.3,380.0 859.0,380.0 862.7,380.0 866.4,380.0 870.0,380.0 873.7,380.0 877.4,380.0 881.1,380.0 884.8,380.0 888.5,380.0 892.1,380.0 895.8,380.0 899.5,380.0 903.2,380.0 906.9,380.0 910.5,380.0 914.2,380.0 917.9,380.0 921.6,380.0 925.3,380.0 929.0,380.0 932.6,380.0 936.3,380.0 940.0,380.0" fill="none" stroke="#f97316" stroke-width="2.2" opacity="0.9"/><polyline points="60.0,240.8 63.7,236.3 67.4,231.8 71.0,227.2 74.7,222.5 78.4,217.7 82.1,212.9 85.8,208.1 89.5,203.2 93.1,198.3 96.8,193.4 100.5,188.5 104.2,183.7 107.9,178.8 111.5,174.0 115.2,169.2 118.9,164.5 122.6,159.9 126.3,155.4 130.0,150.9 133.6,146.6 137.3,142.5 141.0,138.4 144.7,134.6 148.4,130.8 152.1,127.3 155.7,123.9 159.4,120.8 163.1,117.8 166.8,115.0 170.5,112.4 174.1,110.0 177.8,107.8 181.5,105.8 185.2,104.0 188.9,102.3 192.6,100.8 196.2,99.5 199.9,98.4 203.6,97.3 207.3,96.5 211.0,95.7 214.6,95.0 218.3,94.5 222.0,94.0 225.7,93.6 229.4,93.2 233.1,92.9 236.7,92.7 240.4,92.4 244.1,92.2 247.8,92.0 251.5,91.7 255.1,91.5 258.8,91.2 262.5,90.8 266.2,90.4 269.9,90.0 273.6,89.4 277.2,88.8 280.9,88.0 284.6,87.2 288.3,86.2 292.0,85.1 295.6,83.9 299.3,82.5 303.0,81.0 306.7,79.5 310.4,77.8 314.1,76.2 317.7,74.6 321.4,73.1 325.1,71.8 328.8,70.8 332.5,70.1 336.2,70.0 339.8,70.5 343.5,71.8 347.2,73.9 350.9,77.0 354.6,81.1 358.2,86.3 361.9,92.7 365.6,100.0 369.3,108.4 373.0,117.5 376.7,127.2 380.3,137.3 384.0,147.5 387.7,157.8 391.4,168.0 395.1,178.0 398.7,187.9 402.4,197.8 406.1,208.0 409.8,218.4 413.5,229.3 417.2,240.7 420.8,252.5 424.5,264.4 428.2,276.0 431.9,287.0 435.6,296.9 439.2,305.4 442.9,312.4 446.6,317.8 450.3,321.7 454.0,324.4 457.7,326.1 461.3,327.2 465.0,327.9 468.7,328.4 472.4,329.0 476.1,329.9 479.7,331.2 483.4,333.2 487.1,336.0 490.8,339.8 494.5,344.5 498.2,349.8 501.8,355.3 505.5,360.5 509.2,365.1 512.9,368.7 516.6,371.2 520.3,372.8 523.9,373.7 527.6,374.1 531.3,374.4 535.0,374.5 538.7,374.6 542.3,374.7 546.0,375.0 549.7,375.6 553.4,376.3 557.1,377.3 560.8,378.2 564.4,379.0 568.1,379.5 571.8,379.8 575.5,379.9 579.2,380.0 582.8,380.0 586.5,380.0 590.2,380.0 593.9,380.0 597.6,380.0 601.3,380.0 604.9,380.0 608.6,380.0 612.3,380.0 616.0,380.0 619.7,380.0 623.3,380.0 627.0,380.0 630.7,380.0 634.4,380.0 638.1,380.0 641.8,380.0 645.4,380.0 649.1,380.0 652.8,380.0 656.5,380.0 660.2,380.0 663.8,380.0 667.5,380.0 671.2,380.0 674.9,380.0 678.6,380.0 682.3,380.0 685.9,380.0 689.6,380.0 693.3,380.0 697.0,380.0 700.7,380.0 704.4,380.0 708.0,380.0 711.7,380.0 715.4,380.0 719.1,380.0 722.8,380.0 726.4,380.0 730.1,380.0 733.8,380.0 737.5,380.0 741.2,380.0 744.9,380.0 748.5,380.0 752.2,380.0 755.9,380.0 759.6,380.0 763.3,380.0 766.9,380.0 770.6,380.0 774.3,380.0 778.0,380.0 781.7,380.0 785.4,380.0 789.0,380.0 792.7,380.0 796.4,380.0 800.1,380.0 803.8,380.0 807.4,380.0 811.1,380.0 814.8,380.0 818.5,380.0 822.2,380.0 825.9,380.0 829.5,380.0 833.2,380.0 836.9,380.0 840.6,380.0 844.3,380.0 847.9,380.0 851.6,380.0 855.3,380.0 859.0,380.0 862.7,380.0 866.4,380.0 870.0,380.0 873.7,380.0 877.4,380.0 881.1,380.0 884.8,380.0 888.5,380.0 892.1,380.0 895.8,380.0 899.5,380.0 903.2,380.0 906.9,380.0 910.5,380.0 914.2,380.0 917.9,380.0 921.6,380.0 925.3,380.0 929.0,380.0 932.6,380.0 936.3,380.0 940.0,380.0" fill="none" stroke="#3b82f6" stroke-width="2.2" opacity="0.9"/><polyline points="60.0,218.5 63.7,216.1 67.4,213.8 71.0,211.3 74.7,208.9 78.4,206.3 82.1,203.8 85.8,201.2 89.5,198.6 93.1,195.9 96.8,193.2 100.5,190.5 104.2,187.7 107.9,184.9 111.5,182.1 115.2,179.2 118.9,176.3 122.6,173.3 126.3,170.4 130.0,167.4 133.6,164.4 137.3,161.4 141.0,158.3 144.7,155.3 148.4,152.2 152.1,149.1 155.7,146.0 159.4,142.9 163.1,139.9 166.8,136.8 170.5,133.7 174.1,130.6 177.8,127.6 181.5,124.6 185.2,121.6 188.9,118.6 192.6,115.7 196.2,112.8 199.9,110.0 203.6,107.2 207.3,104.5 211.0,101.8 214.6,99.2 218.3,96.7 222.0,94.2 225.7,91.9 229.4,89.6 233.1,87.4 236.7,85.3 240.4,83.4 244.1,81.5 247.8,79.8 251.5,78.2 255.1,76.7 258.8,75.3 262.5,74.1 266.2,73.1 269.9,72.1 273.6,71.4 277.2,70.8 280.9,70.3 284.6,70.1 288.3,70.0 292.0,70.1 295.6,70.4 299.3,70.9 303.0,71.5 306.7,72.4 310.4,73.5 314.1,74.8 317.7,76.3 321.4,78.0 325.1,80.0 328.8,82.1 332.5,84.5 336.2,87.2 339.8,90.1 343.5,93.2 347.2,96.5 350.9,100.0 354.6,103.8 358.2,107.7 361.9,111.9 365.6,116.2 369.3,120.6 373.0,125.2 376.7,129.9 380.3,134.7 384.0,139.5 387.7,144.4 391.4,149.2 395.1,154.0 398.7,158.7 402.4,163.3 406.1,167.8 409.8,172.1 413.5,176.3 417.2,180.2 420.8,184.0 424.5,187.5 428.2,190.9 431.9,194.1 435.6,197.2 439.2,200.2 442.9,203.1 446.6,206.0 450.3,208.9 454.0,211.9 457.7,215.1 461.3,218.5 465.0,222.1 468.7,226.0 472.4,230.2 476.1,234.7 479.7,239.4 483.4,244.4 487.1,249.7 490.8,255.0 494.5,260.4 498.2,265.8 501.8,271.1 505.5,276.1 509.2,280.8 512.9,285.0 516.6,288.9 520.3,292.2 523.9,295.1 527.6,297.5 531.3,299.4 535.0,301.0 538.7,302.2 542.3,303.2 546.0,304.1 549.7,305.0 553.4,305.9 557.1,307.1 560.8,308.5 564.4,310.3 568.1,312.6 571.8,315.5 575.5,318.9 579.2,322.9 582.8,327.5 586.5,332.3 590.2,337.4 593.9,342.3 597.6,347.0 601.3,351.3 604.9,354.9 608.6,357.8 612.3,360.0 616.0,361.7 619.7,362.7 623.3,363.4 627.0,363.8 630.7,364.1 634.4,364.2 638.1,364.2 641.8,364.3 645.4,364.3 649.1,364.3 652.8,364.3 656.5,364.3 660.2,364.3 663.8,364.3 667.5,364.3 671.2,364.3 674.9,364.3 678.6,364.3 682.3,364.3 685.9,364.3 689.6,364.3 693.3,364.3 697.0,364.3 700.7,364.3 704.4,364.3 708.0,364.3 711.7,364.3 715.4,364.3 719.1,364.3 722.8,364.5 726.4,364.8 730.1,365.5 733.8,366.7 737.5,368.5 741.2,370.8 744.9,373.1 748.5,375.0 752.2,376.2 755.9,377.0 759.6,377.5 763.3,378.2 766.9,378.8 770.6,379.1 774.3,378.9 778.0,378.4 781.7,377.8 785.4,377.8 789.0,378.2 792.7,378.9 796.4,379.1 800.1,378.8 803.8,378.1 807.4,377.7 811.1,378.0 814.8,378.7 818.5,379.1 822.2,378.8 825.9,378.0 829.5,377.7 833.2,378.3 836.9,379.2 840.6,379.8 844.3,380.0 847.9,380.0 851.6,380.0 855.3,380.0 859.0,380.0 862.7,380.0 866.4,380.0 870.0,380.0 873.7,380.0 877.4,380.0 881.1,380.0 884.8,380.0 888.5,380.0 892.1,380.0 895.8,380.0 899.5,380.0 903.2,380.0 906.9,380.0 910.5,380.0 914.2,380.0 917.9,380.0 921.6,380.0 925.3,380.0 929.0,380.0 932.6,380.0 936.3,380.0 940.0,380.0" fill="none" stroke="#06b6d4" stroke-width="2.2" opacity="0.9"/><polyline points="60.0,298.0 63.7,296.2 67.4,294.5 71.0,292.6 74.7,290.8 78.4,288.9 82.1,287.0 85.8,285.1 89.5,283.1 93.1,281.2 96.8,279.1 100.5,277.1 104.2,275.0 107.9,272.9 111.5,270.8 115.2,268.7 118.9,266.5 122.6,264.3 126.3,262.2 130.0,260.0 133.6,257.8 137.3,255.6 141.0,253.4 144.7,251.2 148.4,249.0 152.1,246.8 155.7,244.6 159.4,242.5 163.1,240.3 166.8,238.2 170.5,236.1 174.1,234.1 177.8,232.1 181.5,230.1 185.2,228.2 188.9,226.3 192.6,224.5 196.2,222.7 199.9,221.0 203.6,219.3 207.3,217.8 211.0,216.2 214.6,214.8 218.3,213.4 222.0,212.1 225.7,210.9 229.4,209.7 233.1,208.6 236.7,207.6 240.4,206.7 244.1,205.8 247.8,205.0 251.5,204.3 255.1,203.6 258.8,203.0 262.5,202.5 266.2,202.0 269.9,201.6 273.6,201.2 277.2,200.9 280.9,200.6 284.6,200.3 288.3,200.1 292.0,199.9 295.6,199.8 299.3,199.6 303.0,199.5 306.7,199.4 310.4,199.3 314.1,199.3 317.7,199.2 321.4,199.2 325.1,199.1 328.8,199.1 332.5,199.1 336.2,199.0 339.8,199.0 343.5,198.9 347.2,198.8 350.9,198.7 354.6,198.6 358.2,198.4 361.9,198.1 365.6,197.8 369.3,197.4 373.0,196.9 376.7,196.1 380.3,195.2 384.0,194.1 387.7,192.6 391.4,190.8 395.1,188.5 398.7,185.7 402.4,182.3 406.1,178.2 409.8,173.3 413.5,167.6 417.2,161.1 420.8,153.7 424.5,145.6 428.2,136.7 431.9,127.2 435.6,117.4 439.2,107.5 442.9,98.0 446.6,89.2 450.3,81.6 454.0,75.6 457.7,71.6 461.3,70.0 465.0,71.0 468.7,74.6 472.4,81.0 476.1,89.9 479.7,101.0 483.4,113.9 487.1,128.2 490.8,143.5 494.5,159.4 498.2,175.6 501.8,191.8 505.5,207.9 509.2,223.7 512.9,239.1 516.6,253.9 520.3,267.9 523.9,280.7 527.6,292.2 531.3,302.1 535.0,310.4 538.7,316.9 542.3,321.8 546.0,325.4 549.7,327.9 553.4,329.6 557.1,330.9 560.8,332.2 564.4,333.6 568.1,335.5 571.8,338.1 575.5,341.6 579.2,345.9 582.8,350.9 586.5,356.3 590.2,361.8 593.9,366.8 597.6,371.1 601.3,374.4 604.9,376.6 608.6,377.9 612.3,378.5 616.0,378.6 619.7,378.3 623.3,377.9 627.0,377.6 630.7,377.5 634.4,377.7 638.1,378.2 641.8,378.7 645.4,379.2 649.1,379.6 652.8,379.8 656.5,379.9 660.2,380.0 663.8,380.0 667.5,380.0 671.2,380.0 674.9,379.9 678.6,379.8 682.3,379.6 685.9,379.1 689.6,378.5 693.3,377.9 697.0,377.5 700.7,377.7 704.4,378.3 708.0,379.1 711.7,379.6 715.4,379.9 719.1,380.0 722.8,380.0 726.4,380.0 730.1,380.0 733.8,379.8 737.5,379.5 741.2,378.8 744.9,378.0 748.5,377.5 752.2,377.9 755.9,378.8 759.6,379.5 763.3,379.9 766.9,380.0 770.6,380.0 774.3,380.0 778.0,379.8 781.7,379.3 785.4,378.4 789.0,377.6 792.7,377.9 796.4,378.9 800.1,379.7 803.8,380.0 807.4,380.0 811.1,380.0 814.8,380.0 818.5,380.0 822.2,380.0 825.9,380.0 829.5,380.0 833.2,380.0 836.9,380.0 840.6,380.0 844.3,380.0 847.9,380.0 851.6,380.0 855.3,380.0 859.0,380.0 862.7,380.0 866.4,380.0 870.0,380.0 873.7,380.0 877.4,380.0 881.1,380.0 884.8,380.0 888.5,380.0 892.1,380.0 895.8,380.0 899.5,380.0 903.2,380.0 906.9,380.0 910.5,380.0 914.2,380.0 917.9,380.0 921.6,380.0 925.3,380.0 929.0,380.0 932.6,380.0 936.3,380.0 940.0,380.0" fill="none" stroke="#ef4444" stroke-width="2.2" opacity="0.9"/><text x="500" y="414" text-anchor="middle" class="axis-label">Latency (ms, log scale)</text><text x="30" y="220" text-anchor="middle" class="axis-label" transform="rotate(-90 30 220)">Relative density</text><text x="30" y="446" class="footer">Reconstructed from wrk percentiles (min/p50/p75/p90/p99/p99.9/p99.99/p99.999/max), not raw per-request samples - shape is representative, not exact.</text></svg>
