<?xml version="1.0" encoding="UTF-8"?>
<svg xmlns="http://www.w3.org/2000/svg" width="1000" height="460" viewBox="0 0 1000 460"><style>.title{font:15px sans-serif;font-weight:bold;fill:#f9fafb}.legend{font:12px sans-serif;fill:#d1d5db}.tick{font:10px sans-serif;fill:#9ca3af}.axis-label{font:12px sans-serif;fill:#9ca3af}.footer{font:10px sans-serif;fill:#6b7280}</style><rect width="100%" height="100%" fill="#111827"/><text x="30" y="30" class="title">Latency Distribution (density, log scale) - wrk -t12 -c400 -d10s (after 10s warmup, warmup discarded)</text><rect x="60" y="60" width="880" height="320" fill="#1f2937" rx="6" stroke="#374151"/><line x1="60.0" y1="60" x2="60.0" y2="380" stroke="#374151" stroke-dasharray="2,3"/><text x="60.0" y="396" text-anchor="middle" class="tick">0ms</text><line x1="200.7" y1="60" x2="200.7" y2="380" stroke="#374151" stroke-dasharray="2,3"/><text x="200.7" y="396" text-anchor="middle" class="tick">1ms</text><line x1="283.0" y1="60" x2="283.0" y2="380" stroke="#374151" stroke-dasharray="2,3"/><text x="283.0" y="396" text-anchor="middle" class="tick">2ms</text><line x1="423.7" y1="60" x2="423.7" y2="380" stroke="#374151" stroke-dasharray="2,3"/><text x="423.7" y="396" text-anchor="middle" class="tick">5ms</text><line x1="546.7" y1="60" x2="546.7" y2="380" stroke="#374151" stroke-dasharray="2,3"/><text x="546.7" y="396" text-anchor="middle" class="tick">10ms</text><line x1="677.9" y1="60" x2="677.9" y2="380" stroke="#374151" stroke-dasharray="2,3"/><text x="677.9" y="396" text-anchor="middle" class="tick">20ms</text><line x1="858.0" y1="60" x2="858.0" y2="380" stroke="#374151" stroke-dasharray="2,3"/><text x="858.0" y="396" text-anchor="middle" class="tick">50ms</text><rect x="60" y="34" width="11" height="11" fill="#22c55e" rx="2"/><text x="76" y="43" class="legend">CWIST Classic</text><rect x="230" y="34" width="11" height="11" fill="#10b981" rx="2"/><text x="246" y="43" class="legend">CWIST</text><rect x="400" y="34" width="11" height="11" fill="#3b82f6" rx="2"/><text x="416" y="43" class="legend">Axum</text><rect x="570" y="34" width="11" height="11" fill="#06b6d4" rx="2"/><text x="586" y="43" class="legend">Gin</text><rect x="740" y="34" width="11" height="11" fill="#ef4444" rx="2"/><text x="756" y="43" class="legend">Spring Boot</text><polyline points="60.0,228.3 63.7,220.7 67.4,213.1 71.0,205.3 74.7,197.4 78.4,189.5 82.1,181.5 85.8,173.6 89.5,165.7 93.1,158.0 96.8,150.3 100.5,142.9 104.2,135.6 107.9,128.6 111.5,121.9 115.2,115.5 118.9,109.5 122.6,103.9 126.3,98.7 130.0,93.8 133.6,89.5 137.3,85.5 141.0,82.0 144.7,79.0 148.4,76.4 152.1,74.3 155.7,72.6 159.4,71.3 163.1,70.5 166.8,70.0 170.5,70.0 174.1,70.4 177.8,71.2 181.5,72.5 185.2,74.1 188.9,76.2 192.6,78.8 196.2,81.8 199.9,85.3 203.6,89.2 207.3,93.5 211.0,98.3 214.6,103.4 218.3,108.8 222.0,114.4 225.7,120.2 229.4,126.0 233.1,131.9 236.7,137.6 240.4,143.1 244.1,148.4 247.8,153.5 251.5,158.2 255.1,162.8 258.8,167.3 262.5,171.8 266.2,176.4 269.9,181.2 273.6,186.5 277.2,192.3 280.9,198.6 284.6,205.5 288.3,212.9 292.0,220.7 295.6,228.6 299.3,236.4 303.0,243.9 306.7,250.8 310.4,256.9 314.1,262.3 317.7,266.8 321.4,270.7 325.1,274.1 328.8,277.4 332.5,280.8 336.2,284.8 339.8,289.6 343.5,295.4 347.2,302.2 350.9,309.9 354.6,318.1 358.2,326.4 361.9,334.3 365.6,341.3 369.3,347.0 373.0,351.4 376.7,354.5 380.3,356.5 384.0,357.7 387.7,358.4 391.4,358.7 395.1,358.8 398.7,358.9 402.4,358.9 406.1,358.9 409.8,358.9 413.5,358.9 417.2,358.9 420.8,358.9 424.5,358.9 428.2,358.9 431.9,358.9 435.6,358.9 439.2,358.9 442.9,358.9 446.6,359.0 450.3,359.1 454.0,359.5 457.7,360.3 461.3,361.8 465.0,364.3 468.7,367.5 472.4,371.1 476.1,374.3 479.7,376.4 483.4,377.3 487.1,377.4 490.8,377.4 494.5,377.8 498.2,378.5 501.8,379.2 505.5,379.7 509.2,379.8 512.9,379.7 516.6,379.2 520.3,378.4 523.9,377.7 527.6,377.6 531.3,378.2 535.0,379.1 538.7,379.7 542.3,379.8 546.0,379.6 549.7,378.8 553.4,377.9 557.1,377.5 560.8,378.2 564.4,379.2 568.1,379.8 571.8,379.8 575.5,379.2 579.2,378.1 582.8,377.5 586.5,378.2 590.2,379.3 593.9,379.9 597.6,380.0 601.3,380.0 604.9,380.0 608.6,380.0 612.3,380.0 616.0,380.0 619.7,380.0 623.3,380.0 627.0,380.0 630.7,380.0 634.4,380.0 638.1,380.0 641.8,380.0 645.4,380.0 649.1,380.0 652.8,380.0 656.5,380.0 660.2,380.0 663.8,380.0 667.5,380.0 671.2,380.0 674.9,380.0 678.6,380.0 682.3,380.0 685.9,380.0 689.6,380.0 693.3,380.0 697.0,380.0 700.7,380.0 704.4,380.0 708.0,380.0 711.7,380.0 715.4,380.0 719.1,380.0 722.8,380.0 726.4,380.0 730.1,380.0 733.8,380.0 737.5,380.0 741.2,380.0 744.9,380.0 748.5,380.0 752.2,380.0 755.9,380.0 759.6,380.0 763.3,380.0 766.9,380.0 770.6,380.0 774.3,380.0 778.0,380.0 781.7,380.0 785.4,380.0 789.0,380.0 792.7,380.0 796.4,380.0 800.1,380.0 803.8,380.0 807.4,380.0 811.1,380.0 814.8,380.0 818.5,380.0 822.2,380.0 825.9,380.0 829.5,380.0 833.2,380.0 836.9,380.0 840.6,380.0 844.3,380.0 847.9,380.0 851.6,380.0 855.3,380.0 859.0,380.0 862.7,380.0 866.4,380.0 870.0,380.0 873.7,380.0 877.4,380.0 881.1,380.0 884.8,380.0 888.5,380.0 892.1,380.0 895.8,380.0 899.5,380.0 903.2,380.0 906.9,380.0 910.5,380.0 914.2,380.0 917.9,380.0 921.6,380.0 925.3,380.0 929.0,380.0 932.6,380.0 936.3,380.0 940.0,380.0" fill="none" stroke="#22c55e" stroke-width="2.2" opacity="0.9"/><polyline points="60.0,227.4 63.7,222.2 67.4,216.8 71.0,211.3 74.7,205.7 78.4,200.1 82.1,194.4 85.8,188.7 89.5,183.0 93.1,177.2 96.8,171.4 100.5,165.7 104.2,159.9 107.9,154.2 111.5,148.6 115.2,143.1 118.9,137.7 122.6,132.4 126.3,127.2 130.0,122.2 133.6,117.4 137.3,112.7 141.0,108.3 144.7,104.0 148.4,100.0 152.1,96.3 155.7,92.8 159.4,89.5 163.1,86.5 166.8,83.7 170.5,81.3 174.1,79.0 177.8,77.1 181.5,75.3 185.2,73.9 188.9,72.6 192.6,71.7 196.2,70.9 199.9,70.4 203.6,70.1 207.3,70.0 211.0,70.1 214.6,70.5 218.3,71.1 222.0,72.0 225.7,73.0 229.4,74.4 233.1,75.9 236.7,77.8 240.4,79.9 244.1,82.3 247.8,85.0 251.5,87.9 255.1,91.1 258.8,94.6 262.5,98.3 266.2,102.2 269.9,106.3 273.6,110.4 277.2,114.7 280.9,118.9 284.6,123.2 288.3,127.4 292.0,131.4 295.6,135.4 299.3,139.3 303.0,143.0 306.7,146.8 310.4,150.5 314.1,154.3 317.7,158.2 321.4,162.5 325.1,167.0 328.8,172.0 332.5,177.4 336.2,183.2 339.8,189.5 343.5,196.0 347.2,202.7 350.9,209.5 354.6,216.2 358.2,222.6 361.9,228.7 365.6,234.4 369.3,239.8 373.0,245.0 376.7,250.2 380.3,255.7 384.0,261.6 387.7,268.3 391.4,275.8 395.1,284.1 398.7,293.1 402.4,302.5 406.1,311.9 409.8,320.8 413.5,328.9 417.2,335.8 420.8,341.3 424.5,345.5 428.2,348.4 431.9,350.4 435.6,351.5 439.2,352.2 442.9,352.5 446.6,352.7 450.3,352.8 454.0,352.8 457.7,352.8 461.3,352.8 465.0,352.8 468.7,352.8 472.4,352.8 476.1,352.8 479.7,352.9 483.4,353.0 487.1,353.2 490.8,353.6 494.5,354.5 498.2,356.1 501.8,358.5 505.5,361.8 509.2,365.8 512.9,369.9 516.6,373.6 520.3,376.4 523.9,378.3 527.6,379.3 531.3,379.7 535.0,379.7 538.7,379.4 542.3,378.8 546.0,378.1 549.7,377.5 553.4,377.4 557.1,377.8 560.8,378.5 564.4,379.2 568.1,379.7 571.8,379.9 575.5,380.0 579.2,380.0 582.8,380.0 586.5,380.0 590.2,380.0 593.9,380.0 597.6,380.0 601.3,379.9 604.9,379.8 608.6,379.3 612.3,378.4 616.0,377.5 619.7,377.5 623.3,378.4 627.0,379.3 630.7,379.8 634.4,380.0 638.1,380.0 641.8,380.0 645.4,380.0 649.1,380.0 652.8,380.0 656.5,379.8 660.2,379.2 663.8,378.0 667.5,377.4 671.2,378.3 674.9,379.4 678.6,379.9 682.3,380.0 685.9,380.0 689.6,380.0 693.3,380.0 697.0,379.9 700.7,379.4 704.4,377.9 708.0,377.5 711.7,378.9 715.4,379.8 719.1,380.0 722.8,380.0 726.4,380.0 730.1,380.0 733.8,380.0 737.5,380.0 741.2,380.0 744.9,380.0 748.5,380.0 752.2,380.0 755.9,380.0 759.6,380.0 763.3,380.0 766.9,380.0 770.6,380.0 774.3,380.0 778.0,380.0 781.7,380.0 785.4,380.0 789.0,380.0 792.7,380.0 796.4,380.0 800.1,380.0 803.8,380.0 807.4,380.0 811.1,380.0 814.8,380.0 818.5,380.0 822.2,380.0 825.9,380.0 829.5,380.0 833.2,380.0 836.9,380.0 840.6,380.0 844.3,380.0 847.9,380.0 851.6,380.0 855.3,380.0 859.0,380.0 862.7,380.0 866.4,380.0 870.0,380.0 873.7,380.0 877.4,380.0 881.1,380.0 884.8,380.0 888.5,380.0 892.1,380.0 895.8,380.0 899.5,380.0 903.2,380.0 906.9,380.0 910.5,380.0 914.2,380.0 917.9,380.0 921.6,380.0 925.3,380.0 929.0,380.0 932.6,380.0 936.3,380.0 940.0,380.0" fill="none" stroke="#10b981" stroke-width="2.2" opacity="0.9"/><polyline points="60.0,240.0 63.7,235.3 67.4,230.5 71.0,225.6 74.7,220.7 78.4,215.7 82.1,210.6 85.8,205.5 89.5,200.3 93.1,195.1 96.8,190.0 100.5,184.8 104.2,179.6 107.9,174.5 111.5,169.5 115.2,164.5 118.9,159.6 122.6,154.8 126.3,150.1 130.0,145.5 133.6,141.1 137.3,136.8 141.0,132.7 144.7,128.8 148.4,125.1 152.1,121.5 155.7,118.2 159.4,115.1 163.1,112.2 166.8,109.6 170.5,107.1 174.1,104.9 177.8,102.8 181.5,101.0 185.2,99.4 188.9,97.9 192.6,96.6 196.2,95.5 199.9,94.6 203.6,93.8 207.3,93.0 211.0,92.4 214.6,91.9 218.3,91.5 222.0,91.2 225.7,90.8 229.4,90.6 233.1,90.3 236.7,90.1 240.4,89.8 244.1,89.6 247.8,89.3 251.5,89.0 255.1,88.6 258.8,88.2 262.5,87.6 266.2,87.0 269.9,86.3 273.6,85.5 277.2,84.5 280.9,83.4 284.6,82.2 288.3,80.9 292.0,79.4 295.6,77.9 299.3,76.3 303.0,74.8 306.7,73.3 310.4,72.0 314.1,70.9 317.7,70.2 321.4,70.0 325.1,70.4 328.8,71.6 332.5,73.8 336.2,76.9 339.8,81.2 343.5,86.7 347.2,93.3 350.9,101.2 354.6,110.0 358.2,119.7 361.9,130.0 365.6,140.7 369.3,151.5 373.0,162.2 376.7,172.8 380.3,183.1 384.0,193.3 387.7,203.6 391.4,214.1 395.1,225.1 398.7,236.7 402.4,248.7 406.1,261.1 409.8,273.3 413.5,285.1 417.2,295.7 420.8,305.0 424.5,312.5 428.2,318.3 431.9,322.5 435.6,325.4 439.2,327.1 442.9,328.2 446.6,328.9 450.3,329.3 454.0,329.9 457.7,330.7 461.3,332.1 465.0,334.1 468.7,337.2 472.4,341.2 476.1,346.2 479.7,351.8 483.4,357.5 487.1,362.8 490.8,367.1 494.5,370.3 498.2,372.4 501.8,373.6 505.5,374.2 509.2,374.5 512.9,374.6 516.6,374.6 520.3,374.8 523.9,375.0 527.6,375.5 531.3,376.2 535.0,377.1 538.7,378.1 542.3,378.9 546.0,379.5 549.7,379.8 553.4,379.9 557.1,380.0 560.8,380.0 564.4,380.0 568.1,380.0 571.8,380.0 575.5,380.0 579.2,380.0 582.8,380.0 586.5,380.0 590.2,380.0 593.9,380.0 597.6,380.0 601.3,380.0 604.9,380.0 608.6,380.0 612.3,380.0 616.0,380.0 619.7,380.0 623.3,380.0 627.0,380.0 630.7,380.0 634.4,380.0 638.1,380.0 641.8,380.0 645.4,380.0 649.1,380.0 652.8,380.0 656.5,380.0 660.2,380.0 663.8,380.0 667.5,380.0 671.2,380.0 674.9,380.0 678.6,380.0 682.3,380.0 685.9,380.0 689.6,380.0 693.3,380.0 697.0,380.0 700.7,380.0 704.4,380.0 708.0,380.0 711.7,380.0 715.4,380.0 719.1,380.0 722.8,380.0 726.4,380.0 730.1,380.0 733.8,380.0 737.5,380.0 741.2,380.0 744.9,380.0 748.5,380.0 752.2,380.0 755.9,380.0 759.6,380.0 763.3,380.0 766.9,380.0 770.6,380.0 774.3,380.0 778.0,380.0 781.7,380.0 785.4,380.0 789.0,380.0 792.7,380.0 796.4,380.0 800.1,380.0 803.8,380.0 807.4,380.0 811.1,380.0 814.8,380.0 818.5,380.0 822.2,380.0 825.9,380.0 829.5,380.0 833.2,380.0 836.9,380.0 840.6,380.0 844.3,380.0 847.9,380.0 851.6,380.0 855.3,380.0 859.0,380.0 862.7,380.0 866.4,380.0 870.0,380.0 873.7,380.0 877.4,380.0 881.1,380.0 884.8,380.0 888.5,380.0 892.1,380.0 895.8,380.0 899.5,380.0 903.2,380.0 906.9,380.0 910.5,380.0 914.2,380.0 917.9,380.0 921.6,380.0 925.3,380.0 929.0,380.0 932.6,380.0 936.3,380.0 940.0,380.0" fill="none" stroke="#3b82f6" stroke-width="2.2" opacity="0.9"/><polyline points="60.0,215.8 63.7,213.5 67.4,211.2 71.0,208.8 74.7,206.4 78.4,204.0 82.1,201.5 85.8,199.0 89.5,196.4 93.1,193.8 96.8,191.2 100.5,188.5 104.2,185.8 107.9,183.0 111.5,180.2 115.2,177.4 118.9,174.5 122.6,171.6 126.3,168.7 130.0,165.8 133.6,162.8 137.3,159.8 141.0,156.8 144.7,153.8 148.4,150.7 152.1,147.6 155.7,144.6 159.4,141.5 163.1,138.4 166.8,135.3 170.5,132.2 174.1,129.2 177.8,126.1 181.5,123.1 185.2,120.1 188.9,117.1 192.6,114.2 196.2,111.3 199.9,108.4 203.6,105.6 207.3,102.8 211.0,100.1 214.6,97.5 218.3,95.0 222.0,92.5 225.7,90.2 229.4,87.9 233.1,85.7 236.7,83.7 240.4,81.7 244.1,79.9 247.8,78.2 251.5,76.7 255.1,75.2 258.8,74.0 262.5,72.9 266.2,72.0 269.9,71.2 273.6,70.6 277.2,70.2 280.9,70.0 284.6,70.0 288.3,70.2 292.0,70.6 295.6,71.2 299.3,72.1 303.0,73.2 306.7,74.5 310.4,76.1 314.1,77.9 317.7,80.0 321.4,82.3 325.1,84.9 328.8,87.7 332.5,90.8 336.2,94.1 339.8,97.7 343.5,101.6 347.2,105.6 350.9,109.9 354.6,114.4 358.2,119.1 361.9,124.0 365.6,129.0 369.3,134.1 373.0,139.3 376.7,144.5 380.3,149.8 384.0,155.0 387.7,160.2 391.4,165.3 395.1,170.3 398.7,175.1 402.4,179.7 406.1,184.2 409.8,188.4 413.5,192.3 417.2,196.1 420.8,199.6 424.5,202.9 428.2,206.0 431.9,209.0 435.6,211.9 439.2,214.8 442.9,217.6 446.6,220.6 450.3,223.6 454.0,226.9 457.7,230.4 461.3,234.1 465.0,238.2 468.7,242.6 472.4,247.3 476.1,252.3 479.7,257.5 483.4,262.8 487.1,268.2 490.8,273.6 494.5,278.9 498.2,283.9 501.8,288.6 505.5,292.8 509.2,296.7 512.9,300.0 516.6,302.7 520.3,305.0 523.9,306.9 527.6,308.3 531.3,309.4 535.0,310.2 538.7,310.9 542.3,311.5 546.0,312.1 549.7,312.9 553.4,313.8 557.1,315.1 560.8,316.8 564.4,319.1 568.1,321.9 571.8,325.3 575.5,329.3 579.2,333.8 582.8,338.6 586.5,343.4 590.2,348.2 593.9,352.5 597.6,356.3 601.3,359.4 604.9,361.7 608.6,363.4 612.3,364.5 616.0,365.2 619.7,365.6 623.3,365.8 627.0,366.0 630.7,366.0 634.4,366.0 638.1,366.0 641.8,366.0 645.4,366.0 649.1,366.0 652.8,366.0 656.5,366.0 660.2,366.0 663.8,366.0 667.5,366.0 671.2,366.0 674.9,366.0 678.6,366.0 682.3,366.0 685.9,366.0 689.6,366.0 693.3,366.0 697.0,366.0 700.7,366.0 704.4,366.0 708.0,366.0 711.7,366.0 715.4,366.1 719.1,366.2 722.8,366.4 726.4,367.0 730.1,368.2 733.8,370.0 737.5,372.2 741.2,374.3 744.9,375.9 748.5,376.8 752.2,377.5 755.9,378.2 759.6,378.8 763.3,378.9 766.9,378.5 770.6,378.0 774.3,377.8 778.0,378.3 781.7,378.8 785.4,378.9 789.0,378.4 792.7,377.8 796.4,378.0 800.1,378.6 803.8,378.9 807.4,378.5 811.1,377.9 814.8,378.0 818.5,378.8 822.2,379.6 825.9,379.9 829.5,380.0 833.2,380.0 836.9,380.0 840.6,380.0 844.3,380.0 847.9,380.0 851.6,380.0 855.3,380.0 859.0,380.0 862.7,380.0 866.4,380.0 870.0,380.0 873.7,380.0 877.4,380.0 881.1,380.0 884.8,380.0 888.5,380.0 892.1,380.0 895.8,380.0 899.5,380.0 903.2,380.0 906.9,380.0 910.5,380.0 914.2,380.0 917.9,380.0 921.6,380.0 925.3,380.0 929.0,380.0 932.6,380.0 936.3,380.0 940.0,380.0" fill="none" stroke="#06b6d4" stroke-width="2.2" opacity="0.9"/><polyline points="60.0,295.8 63.7,293.9 67.4,292.0 71.0,290.0 74.7,288.0 78.4,285.9 82.1,283.8 85.8,281.7 89.5,279.6 93.1,277.4 96.8,275.2 100.5,272.9 104.2,270.7 107.9,268.4 111.5,266.1 115.2,263.8 118.9,261.4 122.6,259.1 126.3,256.8 130.0,254.4 133.6,252.1 137.3,249.7 141.0,247.4 144.7,245.1 148.4,242.8 152.1,240.5 155.7,238.3 159.4,236.0 163.1,233.9 166.8,231.7 170.5,229.6 174.1,227.6 177.8,225.6 181.5,223.7 185.2,221.9 188.9,220.1 192.6,218.4 196.2,216.7 199.9,215.2 203.6,213.7 207.3,212.3 211.0,211.0 214.6,209.8 218.3,208.6 222.0,207.5 225.7,206.6 229.4,205.7 233.1,204.8 236.7,204.1 240.4,203.4 244.1,202.8 247.8,202.3 251.5,201.8 255.1,201.4 258.8,201.0 262.5,200.7 266.2,200.4 269.9,200.2 273.6,200.0 277.2,199.8 280.9,199.7 284.6,199.5 288.3,199.4 292.0,199.4 295.6,199.3 299.3,199.2 303.0,199.2 306.7,199.2 310.4,199.1 314.1,199.1 317.7,199.0 321.4,198.9 325.1,198.8 328.8,198.7 332.5,198.5 336.2,198.3 339.8,198.0 343.5,197.6 347.2,197.1 350.9,196.4 354.6,195.5 358.2,194.3 361.9,192.9 365.6,191.0 369.3,188.7 373.0,185.8 376.7,182.3 380.3,178.0 384.0,173.0 387.7,167.1 391.4,160.2 395.1,152.5 398.7,144.0 402.4,134.7 406.1,124.9 409.8,114.8 413.5,104.8 417.2,95.2 420.8,86.6 424.5,79.3 428.2,73.9 431.9,70.7 435.6,70.0 439.2,72.1 442.9,77.1 446.6,84.8 450.3,95.3 454.0,108.1 457.7,123.1 461.3,139.7 465.0,157.7 468.7,176.7 472.4,196.2 476.1,215.9 479.7,235.2 483.4,253.6 487.1,270.8 490.8,286.1 494.5,299.3 498.2,310.2 501.8,318.7 505.5,325.1 509.2,329.6 512.9,332.5 516.6,334.4 520.3,335.6 523.9,336.4 527.6,337.2 531.3,338.1 535.0,339.5 538.7,341.4 542.3,344.2 546.0,347.8 549.7,352.2 553.4,357.1 557.1,362.0 560.8,366.5 564.4,370.2 568.1,373.0 571.8,374.9 575.5,376.2 579.2,377.0 582.8,377.7 586.5,378.4 590.2,378.9 593.9,379.1 597.6,379.1 601.3,378.9 604.9,378.4 608.6,377.9 612.3,377.6 616.0,377.6 619.7,378.0 623.3,378.6 627.0,379.0 630.7,379.2 634.4,378.9 638.1,378.4 641.8,377.8 645.4,377.6 649.1,377.8 652.8,378.4 656.5,379.0 660.2,379.2 663.8,378.9 667.5,378.2 671.2,377.6 674.9,377.6 678.6,378.3 682.3,379.1 685.9,379.6 689.6,379.9 693.3,380.0 697.0,380.0 700.7,380.0 704.4,380.0 708.0,380.0 711.7,380.0 715.4,380.0 719.1,380.0 722.8,380.0 726.4,380.0 730.1,380.0 733.8,380.0 737.5,380.0 741.2,380.0 744.9,380.0 748.5,380.0 752.2,380.0 755.9,380.0 759.6,380.0 763.3,380.0 766.9,380.0 770.6,380.0 774.3,380.0 778.0,380.0 781.7,380.0 785.4,380.0 789.0,380.0 792.7,380.0 796.4,380.0 800.1,380.0 803.8,380.0 807.4,380.0 811.1,380.0 814.8,380.0 818.5,380.0 822.2,380.0 825.9,380.0 829.5,380.0 833.2,380.0 836.9,380.0 840.6,380.0 844.3,380.0 847.9,380.0 851.6,380.0 855.3,380.0 859.0,380.0 862.7,380.0 866.4,380.0 870.0,380.0 873.7,380.0 877.4,380.0 881.1,380.0 884.8,380.0 888.5,380.0 892.1,380.0 895.8,380.0 899.5,380.0 903.2,380.0 906.9,380.0 910.5,380.0 914.2,380.0 917.9,380.0 921.6,380.0 925.3,380.0 929.0,380.0 932.6,380.0 936.3,380.0 940.0,380.0" fill="none" stroke="#ef4444" stroke-width="2.2" opacity="0.9"/><text x="500" y="414" text-anchor="middle" class="axis-label">Latency (ms, log scale)</text><text x="30" y="220" text-anchor="middle" class="axis-label" transform="rotate(-90 30 220)">Relative density</text><text x="30" y="446" class="footer">Reconstructed from wrk percentiles (min/p50/p75/p90/p99/p99.9/p99.99/p99.999/max), not raw per-request samples - shape is representative, not exact.</text></svg>
