<?xml version="1.0" encoding="UTF-8"?>
<svg xmlns="http://www.w3.org/2000/svg" width="1000" height="460" viewBox="0 0 1000 460"><style>.title{font:15px sans-serif;font-weight:bold;fill:#f9fafb}.legend{font:12px sans-serif;fill:#d1d5db}.tick{font:10px sans-serif;fill:#9ca3af}.axis-label{font:12px sans-serif;fill:#9ca3af}.footer{font:10px sans-serif;fill:#6b7280}</style><rect width="100%" height="100%" fill="#111827"/><text x="30" y="30" class="title">Latency Distribution (density, log scale) - wrk -t12 -c400 -d10s (after 10s warmup, warmup discarded)</text><rect x="60" y="60" width="880" height="320" fill="#1f2937" rx="6" stroke="#374151"/><line x1="60.0" y1="60" x2="60.0" y2="380" stroke="#374151" stroke-dasharray="2,3"/><text x="60.0" y="396" text-anchor="middle" class="tick">0ms</text><line x1="193.1" y1="60" x2="193.1" y2="380" stroke="#374151" stroke-dasharray="2,3"/><text x="193.1" y="396" text-anchor="middle" class="tick">1ms</text><line x1="270.9" y1="60" x2="270.9" y2="380" stroke="#374151" stroke-dasharray="2,3"/><text x="270.9" y="396" text-anchor="middle" class="tick">2ms</text><line x1="404.0" y1="60" x2="404.0" y2="380" stroke="#374151" stroke-dasharray="2,3"/><text x="404.0" y="396" text-anchor="middle" class="tick">5ms</text><line x1="520.4" y1="60" x2="520.4" y2="380" stroke="#374151" stroke-dasharray="2,3"/><text x="520.4" y="396" text-anchor="middle" class="tick">10ms</text><line x1="644.5" y1="60" x2="644.5" y2="380" stroke="#374151" stroke-dasharray="2,3"/><text x="644.5" y="396" text-anchor="middle" class="tick">20ms</text><line x1="814.9" y1="60" x2="814.9" y2="380" stroke="#374151" stroke-dasharray="2,3"/><text x="814.9" y="396" text-anchor="middle" class="tick">50ms</text><line x1="946.1" y1="60" x2="946.1" y2="380" stroke="#374151" stroke-dasharray="2,3"/><text x="946.1" y="396" text-anchor="middle" class="tick">100ms</text><rect x="60" y="34" width="11" height="11" fill="#22c55e" rx="2"/><text x="76" y="43" class="legend">CWIST Classic</text><rect x="230" y="34" width="11" height="11" fill="#10b981" rx="2"/><text x="246" y="43" class="legend">CWIST</text><rect x="400" y="34" width="11" height="11" fill="#3b82f6" rx="2"/><text x="416" y="43" class="legend">Axum</text><rect x="570" y="34" width="11" height="11" fill="#06b6d4" rx="2"/><text x="586" y="43" class="legend">Gin</text><rect x="740" y="34" width="11" height="11" fill="#ef4444" rx="2"/><text x="756" y="43" class="legend">Spring Boot</text><polyline points="60.0,227.8 63.7,222.0 67.4,216.0 71.0,209.9 74.7,203.8 78.4,197.5 82.1,191.2 85.8,184.9 89.5,178.5 93.1,172.1 96.8,165.8 100.5,159.4 104.2,153.1 107.9,146.9 111.5,140.9 115.2,134.9 118.9,129.1 122.6,123.5 126.3,118.0 130.0,112.8 133.6,107.9 137.3,103.2 141.0,98.7 144.7,94.6 148.4,90.8 152.1,87.3 155.7,84.1 159.4,81.2 163.1,78.6 166.8,76.4 170.5,74.5 174.1,73.0 177.8,71.7 181.5,70.8 185.2,70.3 188.9,70.0 192.6,70.1 196.2,70.5 199.9,71.2 203.6,72.2 207.3,73.7 211.0,75.4 214.6,77.6 218.3,80.1 222.0,83.0 225.7,86.2 229.4,89.9 233.1,93.9 236.7,98.2 240.4,102.9 244.1,107.9 247.8,113.0 251.5,118.3 255.1,123.7 258.8,129.1 262.5,134.5 266.2,139.7 269.9,144.7 273.6,149.5 277.2,154.1 280.9,158.5 284.6,162.8 288.3,166.9 292.0,171.1 295.6,175.4 299.3,179.9 303.0,184.8 306.7,190.1 310.4,196.0 314.1,202.3 317.7,209.1 321.4,216.2 325.1,223.5 328.8,230.8 332.5,237.8 336.2,244.4 339.8,250.4 343.5,255.7 347.2,260.3 350.9,264.5 354.6,268.3 358.2,272.0 361.9,276.0 365.6,280.5 369.3,285.8 373.0,292.1 376.7,299.3 380.3,307.3 384.0,315.6 387.7,323.8 391.4,331.4 395.1,338.1 398.7,343.5 402.4,347.6 406.1,350.4 409.8,352.2 413.5,353.3 417.2,353.9 420.8,354.2 424.5,354.3 428.2,354.4 431.9,354.4 435.6,354.4 439.2,354.4 442.9,354.4 446.6,354.4 450.3,354.4 454.0,354.4 457.7,354.5 461.3,354.6 465.0,355.0 468.7,355.8 472.4,357.3 476.1,359.7 479.7,362.9 483.4,366.7 487.1,370.3 490.8,373.2 494.5,375.2 498.2,376.4 501.8,377.4 505.5,378.2 509.2,378.7 512.9,378.7 516.6,378.3 520.3,377.7 523.9,377.5 527.6,377.8 531.3,378.4 535.0,378.8 538.7,378.5 542.3,377.9 546.0,377.5 549.7,377.8 553.4,378.5 557.1,378.8 560.8,378.3 564.4,377.6 568.1,377.6 571.8,378.3 575.5,379.3 579.2,379.8 582.8,380.0 586.5,380.0 590.2,380.0 593.9,380.0 597.6,380.0 601.3,380.0 604.9,380.0 608.6,380.0 612.3,380.0 616.0,380.0 619.7,380.0 623.3,380.0 627.0,380.0 630.7,380.0 634.4,380.0 638.1,380.0 641.8,380.0 645.4,380.0 649.1,380.0 652.8,380.0 656.5,380.0 660.2,380.0 663.8,380.0 667.5,380.0 671.2,380.0 674.9,380.0 678.6,380.0 682.3,380.0 685.9,380.0 689.6,380.0 693.3,380.0 697.0,380.0 700.7,380.0 704.4,380.0 708.0,380.0 711.7,380.0 715.4,380.0 719.1,380.0 722.8,380.0 726.4,380.0 730.1,380.0 733.8,380.0 737.5,380.0 741.2,380.0 744.9,380.0 748.5,380.0 752.2,380.0 755.9,380.0 759.6,380.0 763.3,380.0 766.9,380.0 770.6,380.0 774.3,380.0 778.0,380.0 781.7,380.0 785.4,380.0 789.0,380.0 792.7,380.0 796.4,380.0 800.1,380.0 803.8,380.0 807.4,380.0 811.1,380.0 814.8,380.0 818.5,380.0 822.2,380.0 825.9,380.0 829.5,380.0 833.2,380.0 836.9,380.0 840.6,380.0 844.3,380.0 847.9,380.0 851.6,380.0 855.3,380.0 859.0,380.0 862.7,380.0 866.4,380.0 870.0,380.0 873.7,380.0 877.4,380.0 881.1,380.0 884.8,380.0 888.5,380.0 892.1,380.0 895.8,380.0 899.5,380.0 903.2,380.0 906.9,380.0 910.5,380.0 914.2,380.0 917.9,380.0 921.6,380.0 925.3,380.0 929.0,380.0 932.6,380.0 936.3,380.0 940.0,380.0" fill="none" stroke="#22c55e" stroke-width="2.2" opacity="0.9"/><polyline points="60.0,241.3 63.7,236.7 67.4,232.0 71.0,227.3 74.7,222.4 78.4,217.5 82.1,212.6 85.8,207.6 89.5,202.5 93.1,197.4 96.8,192.3 100.5,187.2 104.2,182.1 107.9,177.0 111.5,172.0 115.2,167.0 118.9,162.1 122.6,157.3 126.3,152.6 130.0,147.9 133.6,143.5 137.3,139.1 141.0,134.9 144.7,130.9 148.4,127.1 152.1,123.5 155.7,120.1 159.4,116.9 163.1,113.9 166.8,111.1 170.5,108.5 174.1,106.2 177.8,104.0 181.5,102.1 185.2,100.4 188.9,98.8 192.6,97.5 196.2,96.3 199.9,95.3 203.6,94.4 207.3,93.7 211.0,93.0 214.6,92.5 218.3,92.0 222.0,91.6 225.7,91.3 229.4,91.0 233.1,90.8 236.7,90.6 240.4,90.3 244.1,90.1 247.8,89.8 251.5,89.5 255.1,89.1 258.8,88.7 262.5,88.2 266.2,87.6 269.9,86.9 273.6,86.0 277.2,85.1 280.9,83.9 284.6,82.7 288.3,81.3 292.0,79.8 295.6,78.2 299.3,76.6 303.0,74.9 306.7,73.4 310.4,72.0 314.1,70.9 317.7,70.2 321.4,70.0 325.1,70.5 328.8,71.9 332.5,74.2 336.2,77.6 339.8,82.2 343.5,88.1 347.2,95.2 350.9,103.4 354.6,112.6 358.2,122.6 361.9,133.2 365.6,144.1 369.3,155.1 373.0,166.1 376.7,177.1 380.3,188.3 384.0,199.7 387.7,211.6 391.4,224.1 395.1,237.2 398.7,250.8 402.4,264.5 406.1,277.7 409.8,290.0 413.5,300.6 417.2,309.4 420.8,316.2 424.5,321.1 428.2,324.4 431.9,326.4 435.6,327.6 439.2,328.3 442.9,328.9 446.6,329.5 450.3,330.5 454.0,332.0 457.7,334.4 461.3,337.9 465.0,342.5 468.7,348.0 472.4,353.9 476.1,359.6 479.7,364.5 483.4,368.3 487.1,370.8 490.8,372.3 494.5,373.1 498.2,373.5 501.8,373.8 505.5,374.1 509.2,374.7 512.9,375.6 516.6,376.7 520.3,377.9 523.9,378.8 527.6,379.5 531.3,379.8 535.0,379.9 538.7,380.0 542.3,380.0 546.0,380.0 549.7,380.0 553.4,380.0 557.1,380.0 560.8,380.0 564.4,380.0 568.1,380.0 571.8,380.0 575.5,380.0 579.2,380.0 582.8,380.0 586.5,380.0 590.2,380.0 593.9,380.0 597.6,380.0 601.3,380.0 604.9,380.0 608.6,380.0 612.3,380.0 616.0,380.0 619.7,380.0 623.3,380.0 627.0,380.0 630.7,380.0 634.4,380.0 638.1,380.0 641.8,380.0 645.4,380.0 649.1,380.0 652.8,380.0 656.5,380.0 660.2,380.0 663.8,380.0 667.5,380.0 671.2,380.0 674.9,380.0 678.6,380.0 682.3,380.0 685.9,380.0 689.6,380.0 693.3,380.0 697.0,380.0 700.7,380.0 704.4,380.0 708.0,380.0 711.7,380.0 715.4,380.0 719.1,380.0 722.8,380.0 726.4,380.0 730.1,380.0 733.8,380.0 737.5,380.0 741.2,380.0 744.9,380.0 748.5,380.0 752.2,380.0 755.9,380.0 759.6,380.0 763.3,380.0 766.9,380.0 770.6,380.0 774.3,380.0 778.0,380.0 781.7,380.0 785.4,380.0 789.0,380.0 792.7,380.0 796.4,380.0 800.1,380.0 803.8,380.0 807.4,380.0 811.1,380.0 814.8,380.0 818.5,380.0 822.2,380.0 825.9,380.0 829.5,380.0 833.2,380.0 836.9,380.0 840.6,380.0 844.3,380.0 847.9,380.0 851.6,380.0 855.3,380.0 859.0,380.0 862.7,380.0 866.4,380.0 870.0,380.0 873.7,380.0 877.4,380.0 881.1,380.0 884.8,380.0 888.5,380.0 892.1,380.0 895.8,380.0 899.5,380.0 903.2,380.0 906.9,380.0 910.5,380.0 914.2,380.0 917.9,380.0 921.6,380.0 925.3,380.0 929.0,380.0 932.6,380.0 936.3,380.0 940.0,380.0" fill="none" stroke="#10b981" stroke-width="2.2" opacity="0.9"/><polyline points="60.0,249.7 63.7,246.1 67.4,242.5 71.0,238.7 74.7,234.9 78.4,231.1 82.1,227.1 85.8,223.2 89.5,219.2 93.1,215.1 96.8,211.0 100.5,206.9 104.2,202.8 107.9,198.7 111.5,194.5 115.2,190.4 118.9,186.3 122.6,182.2 126.3,178.1 130.0,174.1 133.6,170.2 137.3,166.3 141.0,162.5 144.7,158.8 148.4,155.2 152.1,151.7 155.7,148.3 159.4,145.1 163.1,142.0 166.8,139.0 170.5,136.2 174.1,133.5 177.8,131.0 181.5,128.7 185.2,126.5 188.9,124.5 192.6,122.6 196.2,121.0 199.9,119.4 203.6,118.0 207.3,116.8 211.0,115.7 214.6,114.7 218.3,113.9 222.0,113.1 225.7,112.5 229.4,112.0 233.1,111.5 236.7,111.1 240.4,110.8 244.1,110.5 247.8,110.2 251.5,110.0 255.1,109.8 258.8,109.6 262.5,109.4 266.2,109.2 269.9,109.0 273.6,108.7 277.2,108.4 280.9,108.0 284.6,107.5 288.3,106.8 292.0,106.1 295.6,105.2 299.3,104.1 303.0,102.9 306.7,101.4 310.4,99.7 314.1,97.7 317.7,95.5 321.4,93.0 325.1,90.3 328.8,87.5 332.5,84.5 336.2,81.5 339.8,78.5 343.5,75.8 347.2,73.4 350.9,71.5 354.6,70.3 358.2,70.0 361.9,70.7 365.6,72.7 369.3,76.0 373.0,80.6 376.7,86.7 380.3,94.2 384.0,102.9 387.7,112.6 391.4,123.1 395.1,134.1 398.7,145.4 402.4,156.9 406.1,168.3 409.8,179.8 413.5,191.5 417.2,203.5 420.8,215.9 424.5,228.9 428.2,242.3 431.9,255.9 435.6,269.2 439.2,281.7 442.9,292.9 446.6,302.4 450.3,310.0 454.0,315.6 457.7,319.6 461.3,322.2 465.0,323.8 468.7,324.9 472.4,325.8 476.1,326.8 479.7,328.3 483.4,330.6 487.1,334.0 490.8,338.4 494.5,343.9 498.2,350.1 501.8,356.3 505.5,362.0 509.2,366.6 512.9,370.0 516.6,372.2 520.3,373.4 523.9,374.0 527.6,374.3 531.3,374.4 535.0,374.5 538.7,374.8 542.3,375.2 546.0,375.9 549.7,376.8 553.4,377.8 557.1,378.7 560.8,379.4 564.4,379.8 568.1,379.9 571.8,380.0 575.5,380.0 579.2,380.0 582.8,380.0 586.5,380.0 590.2,380.0 593.9,380.0 597.6,380.0 601.3,380.0 604.9,380.0 608.6,380.0 612.3,380.0 616.0,380.0 619.7,380.0 623.3,380.0 627.0,380.0 630.7,380.0 634.4,380.0 638.1,380.0 641.8,380.0 645.4,380.0 649.1,380.0 652.8,380.0 656.5,380.0 660.2,380.0 663.8,380.0 667.5,380.0 671.2,380.0 674.9,380.0 678.6,380.0 682.3,380.0 685.9,380.0 689.6,380.0 693.3,380.0 697.0,380.0 700.7,380.0 704.4,380.0 708.0,380.0 711.7,380.0 715.4,380.0 719.1,380.0 722.8,380.0 726.4,380.0 730.1,380.0 733.8,380.0 737.5,380.0 741.2,380.0 744.9,380.0 748.5,380.0 752.2,380.0 755.9,380.0 759.6,380.0 763.3,380.0 766.9,380.0 770.6,380.0 774.3,380.0 778.0,380.0 781.7,380.0 785.4,380.0 789.0,380.0 792.7,380.0 796.4,380.0 800.1,380.0 803.8,380.0 807.4,380.0 811.1,380.0 814.8,380.0 818.5,380.0 822.2,380.0 825.9,380.0 829.5,380.0 833.2,380.0 836.9,380.0 840.6,380.0 844.3,380.0 847.9,380.0 851.6,380.0 855.3,380.0 859.0,380.0 862.7,380.0 866.4,380.0 870.0,380.0 873.7,380.0 877.4,380.0 881.1,380.0 884.8,380.0 888.5,380.0 892.1,380.0 895.8,380.0 899.5,380.0 903.2,380.0 906.9,380.0 910.5,380.0 914.2,380.0 917.9,380.0 921.6,380.0 925.3,380.0 929.0,380.0 932.6,380.0 936.3,380.0 940.0,380.0" fill="none" stroke="#3b82f6" stroke-width="2.2" opacity="0.9"/><polyline points="60.0,216.0 63.7,214.3 67.4,212.7 71.0,211.0 74.7,209.3 78.4,207.5 82.1,205.7 85.8,203.9 89.5,202.0 93.1,200.1 96.8,198.2 100.5,196.2 104.2,194.2 107.9,192.2 111.5,190.1 115.2,188.1 118.9,185.9 122.6,183.8 126.3,181.6 130.0,179.3 133.6,177.1 137.3,174.8 141.0,172.5 144.7,170.1 148.4,167.7 152.1,165.3 155.7,162.9 159.4,160.4 163.1,158.0 166.8,155.4 170.5,152.9 174.1,150.4 177.8,147.8 181.5,145.2 185.2,142.6 188.9,140.0 192.6,137.3 196.2,134.7 199.9,132.1 203.6,129.4 207.3,126.8 211.0,124.2 214.6,121.5 218.3,118.9 222.0,116.3 225.7,113.7 229.4,111.2 233.1,108.6 236.7,106.2 240.4,103.7 244.1,101.3 247.8,98.9 251.5,96.6 255.1,94.3 258.8,92.1 262.5,90.0 266.2,87.9 269.9,85.9 273.6,84.0 277.2,82.2 280.9,80.5 284.6,78.9 288.3,77.4 292.0,76.1 295.6,74.8 299.3,73.7 303.0,72.7 306.7,71.9 310.4,71.2 314.1,70.6 317.7,70.2 321.4,70.0 325.1,70.0 328.8,70.1 332.5,70.5 336.2,71.0 339.8,71.7 343.5,72.7 347.2,73.8 350.9,75.2 354.6,76.8 358.2,78.7 361.9,80.7 365.6,83.0 369.3,85.6 373.0,88.4 376.7,91.4 380.3,94.7 384.0,98.2 387.7,102.0 391.4,105.9 395.1,110.1 398.7,114.5 402.4,119.1 406.1,123.9 409.8,128.7 413.5,133.8 417.2,138.8 420.8,144.0 424.5,149.2 428.2,154.4 431.9,159.5 435.6,164.5 439.2,169.5 442.9,174.2 446.6,178.9 450.3,183.3 454.0,187.5 457.7,191.5 461.3,195.2 465.0,198.8 468.7,202.1 472.4,205.3 476.1,208.3 479.7,211.2 483.4,214.1 487.1,217.0 490.8,220.0 494.5,223.1 498.2,226.4 501.8,230.0 505.5,233.8 509.2,238.0 512.9,242.5 516.6,247.3 520.3,252.4 523.9,257.7 527.6,263.2 531.3,268.8 535.0,274.3 538.7,279.7 542.3,284.9 546.0,289.6 549.7,294.0 553.4,297.8 557.1,301.1 560.8,303.9 564.4,306.2 568.1,307.9 571.8,309.3 575.5,310.3 579.2,311.1 582.8,311.8 586.5,312.3 590.2,313.0 593.9,313.7 597.6,314.8 601.3,316.1 604.9,318.0 608.6,320.4 612.3,323.5 616.0,327.2 619.7,331.5 623.3,336.3 627.0,341.3 630.7,346.3 634.4,351.0 638.1,355.1 641.8,358.6 645.4,361.3 649.1,363.3 652.8,364.6 656.5,365.4 660.2,365.9 663.8,366.2 667.5,366.3 671.2,366.3 674.9,366.4 678.6,366.4 682.3,366.4 685.9,366.4 689.6,366.4 693.3,366.4 697.0,366.4 700.7,366.4 704.4,366.4 708.0,366.4 711.7,366.4 715.4,366.4 719.1,366.4 722.8,366.4 726.4,366.4 730.1,366.4 733.8,366.4 737.5,366.4 741.2,366.4 744.9,366.4 748.5,366.4 752.2,366.4 755.9,366.4 759.6,366.5 763.3,366.8 766.9,367.5 770.6,368.9 774.3,370.9 778.0,373.2 781.7,375.1 785.4,376.4 789.0,377.3 792.7,378.1 796.4,378.6 800.1,378.6 803.8,378.1 807.4,377.8 811.1,378.0 814.8,378.5 818.5,378.7 822.2,378.2 825.9,377.8 829.5,378.1 833.2,378.6 836.9,378.6 840.6,378.0 844.3,377.9 847.9,378.7 851.6,379.5 855.3,379.9 859.0,380.0 862.7,380.0 866.4,380.0 870.0,380.0 873.7,380.0 877.4,380.0 881.1,380.0 884.8,380.0 888.5,380.0 892.1,380.0 895.8,380.0 899.5,380.0 903.2,380.0 906.9,380.0 910.5,380.0 914.2,380.0 917.9,380.0 921.6,380.0 925.3,380.0 929.0,380.0 932.6,380.0 936.3,380.0 940.0,380.0" fill="none" stroke="#06b6d4" stroke-width="2.2" opacity="0.9"/><polyline points="60.0,305.6 63.7,304.6 67.4,303.5 71.0,302.4 74.7,301.3 78.4,300.2 82.1,299.0 85.8,297.8 89.5,296.6 93.1,295.4 96.8,294.2 100.5,292.9 104.2,291.6 107.9,290.3 111.5,289.0 115.2,287.7 118.9,286.3 122.6,284.9 126.3,283.5 130.0,282.1 133.6,280.7 137.3,279.2 141.0,277.7 144.7,276.2 148.4,274.7 152.1,273.2 155.7,271.7 159.4,270.2 163.1,268.6 166.8,267.1 170.5,265.5 174.1,264.0 177.8,262.4 181.5,260.8 185.2,259.3 188.9,257.7 192.6,256.2 196.2,254.6 199.9,253.1 203.6,251.6 207.3,250.1 211.0,248.6 214.6,247.2 218.3,245.7 222.0,244.3 225.7,243.0 229.4,241.6 233.1,240.3 236.7,239.0 240.4,237.8 244.1,236.6 247.8,235.4 251.5,234.3 255.1,233.3 258.8,232.2 262.5,231.3 266.2,230.3 269.9,229.5 273.6,228.7 277.2,227.9 280.9,227.2 284.6,226.5 288.3,225.9 292.0,225.3 295.6,224.8 299.3,224.3 303.0,223.8 306.7,223.5 310.4,223.1 314.1,222.8 317.7,222.5 321.4,222.3 325.1,222.0 328.8,221.9 332.5,221.7 336.2,221.6 339.8,221.4 343.5,221.3 347.2,221.3 350.9,221.2 354.6,221.1 358.2,221.1 361.9,221.0 365.6,221.0 369.3,221.0 373.0,221.0 376.7,220.9 380.3,220.9 384.0,220.9 387.7,220.9 391.4,220.8 395.1,220.8 398.7,220.7 402.4,220.6 406.1,220.5 409.8,220.3 413.5,220.1 417.2,219.8 420.8,219.4 424.5,218.9 428.2,218.2 431.9,217.3 435.6,216.1 439.2,214.5 442.9,212.5 446.6,210.0 450.3,206.8 454.0,202.9 457.7,198.0 461.3,192.2 465.0,185.4 468.7,177.3 472.4,168.2 476.1,157.9 479.7,146.7 483.4,134.8 487.1,122.5 490.8,110.2 494.5,98.5 498.2,88.1 501.8,79.4 505.5,73.2 509.2,70.0 512.9,70.2 516.6,74.0 520.3,81.5 523.9,92.8 527.6,107.3 531.3,124.8 535.0,144.7 538.7,166.3 542.3,189.0 546.0,212.0 549.7,234.7 553.4,256.3 557.1,276.1 560.8,293.7 564.4,308.6 568.1,320.7 571.8,330.0 575.5,336.8 579.2,341.5 582.8,344.5 586.5,346.3 590.2,347.4 593.9,347.9 597.6,348.2 601.3,348.3 604.9,348.4 608.6,348.5 612.3,348.7 616.0,349.1 619.7,349.8 623.3,351.1 627.0,352.9 630.7,355.6 634.4,359.1 638.1,363.1 641.8,367.3 645.4,371.2 649.1,374.5 652.8,376.9 656.5,378.4 660.2,379.3 663.8,379.7 667.5,379.7 671.2,379.5 674.9,379.1 678.6,378.6 682.3,378.0 685.9,377.7 689.6,377.8 693.3,378.3 697.0,378.9 700.7,379.4 704.4,379.7 708.0,379.9 711.7,380.0 715.4,380.0 719.1,380.0 722.8,380.0 726.4,380.0 730.1,380.0 733.8,380.0 737.5,380.0 741.2,379.9 744.9,379.7 748.5,379.2 752.2,378.5 755.9,377.8 759.6,377.9 763.3,378.6 766.9,379.4 770.6,379.8 774.3,380.0 778.0,380.0 781.7,380.0 785.4,380.0 789.0,380.0 792.7,380.0 796.4,379.9 800.1,379.6 803.8,378.8 807.4,377.8 811.1,378.0 814.8,379.0 818.5,379.8 822.2,380.0 825.9,380.0 829.5,380.0 833.2,380.0 836.9,380.0 840.6,379.9 844.3,379.1 847.9,377.9 851.6,378.1 855.3,379.4 859.0,379.9 862.7,380.0 866.4,380.0 870.0,380.0 873.7,380.0 877.4,380.0 881.1,380.0 884.8,380.0 888.5,380.0 892.1,380.0 895.8,380.0 899.5,380.0 903.2,380.0 906.9,380.0 910.5,380.0 914.2,380.0 917.9,380.0 921.6,380.0 925.3,380.0 929.0,380.0 932.6,380.0 936.3,380.0 940.0,380.0" fill="none" stroke="#ef4444" stroke-width="2.2" opacity="0.9"/><text x="500" y="414" text-anchor="middle" class="axis-label">Latency (ms, log scale)</text><text x="30" y="220" text-anchor="middle" class="axis-label" transform="rotate(-90 30 220)">Relative density</text><text x="30" y="446" class="footer">Reconstructed from wrk percentiles (min/p50/p75/p90/p99/p99.9/p99.99/p99.999/max), not raw per-request samples - shape is representative, not exact.</text></svg>
