<?xml version="1.0" encoding="UTF-8"?>
<svg xmlns="http://www.w3.org/2000/svg" width="1000" height="460" viewBox="0 0 1000 460"><style>.title{font:15px sans-serif;font-weight:bold;fill:#f9fafb}.legend{font:12px sans-serif;fill:#d1d5db}.tick{font:10px sans-serif;fill:#9ca3af}.axis-label{font:12px sans-serif;fill:#9ca3af}.footer{font:10px sans-serif;fill:#6b7280}</style><rect width="100%" height="100%" fill="#111827"/><text x="30" y="30" class="title">Latency Distribution (density, log scale) - wrk -t12 -c400 -d10s (after 10s warmup, warmup discarded)</text><rect x="60" y="60" width="880" height="320" fill="#1f2937" rx="6" stroke="#374151"/><line x1="60.0" y1="60" x2="60.0" y2="380" stroke="#374151" stroke-dasharray="2,3"/><text x="60.0" y="396" text-anchor="middle" class="tick">0ms</text><line x1="193.1" y1="60" x2="193.1" y2="380" stroke="#374151" stroke-dasharray="2,3"/><text x="193.1" y="396" text-anchor="middle" class="tick">1ms</text><line x1="271.0" y1="60" x2="271.0" y2="380" stroke="#374151" stroke-dasharray="2,3"/><text x="271.0" y="396" text-anchor="middle" class="tick">2ms</text><line x1="404.0" y1="60" x2="404.0" y2="380" stroke="#374151" stroke-dasharray="2,3"/><text x="404.0" y="396" text-anchor="middle" class="tick">5ms</text><line x1="520.4" y1="60" x2="520.4" y2="380" stroke="#374151" stroke-dasharray="2,3"/><text x="520.4" y="396" text-anchor="middle" class="tick">10ms</text><line x1="644.6" y1="60" x2="644.6" y2="380" stroke="#374151" stroke-dasharray="2,3"/><text x="644.6" y="396" text-anchor="middle" class="tick">20ms</text><line x1="815.0" y1="60" x2="815.0" y2="380" stroke="#374151" stroke-dasharray="2,3"/><text x="815.0" y="396" text-anchor="middle" class="tick">50ms</text><line x1="946.2" y1="60" x2="946.2" y2="380" stroke="#374151" stroke-dasharray="2,3"/><text x="946.2" y="396" text-anchor="middle" class="tick">100ms</text><rect x="60" y="34" width="11" height="11" fill="#22c55e" rx="2"/><text x="76" y="43" class="legend">CWIST Classic</text><rect x="230" y="34" width="11" height="11" fill="#10b981" rx="2"/><text x="246" y="43" class="legend">CWIST</text><rect x="400" y="34" width="11" height="11" fill="#3b82f6" rx="2"/><text x="416" y="43" class="legend">Axum</text><rect x="570" y="34" width="11" height="11" fill="#06b6d4" rx="2"/><text x="586" y="43" class="legend">Gin</text><rect x="740" y="34" width="11" height="11" fill="#ef4444" rx="2"/><text x="756" y="43" class="legend">Spring Boot</text><polyline points="60.0,229.5 63.7,223.4 67.4,217.1 71.0,210.8 74.7,204.4 78.4,197.8 82.1,191.3 85.8,184.7 89.5,178.0 93.1,171.4 96.8,164.8 100.5,158.3 104.2,151.8 107.9,145.4 111.5,139.2 115.2,133.1 118.9,127.2 122.6,121.5 126.3,116.1 130.0,110.9 133.6,105.9 137.3,101.3 141.0,96.9 144.7,92.9 148.4,89.2 152.1,85.8 155.7,82.8 159.4,80.1 163.1,77.7 166.8,75.7 170.5,74.0 174.1,72.6 177.8,71.5 181.5,70.7 185.2,70.2 188.9,70.0 192.6,70.1 196.2,70.5 199.9,71.2 203.6,72.2 207.3,73.5 211.0,75.2 214.6,77.2 218.3,79.5 222.0,82.2 225.7,85.2 229.4,88.6 233.1,92.3 236.7,96.4 240.4,100.7 244.1,105.3 247.8,110.0 251.5,114.9 255.1,119.8 258.8,124.8 262.5,129.6 266.2,134.4 269.9,139.0 273.6,143.4 277.2,147.7 280.9,151.9 284.6,156.1 288.3,160.4 292.0,164.9 295.6,169.7 299.3,175.0 303.0,180.8 306.7,187.1 310.4,193.9 314.1,201.2 317.7,208.8 321.4,216.5 325.1,224.0 328.8,231.2 332.5,237.9 336.2,243.9 339.8,249.3 343.5,254.3 347.2,258.9 350.9,263.5 354.6,268.5 358.2,274.1 361.9,280.6 365.6,288.1 369.3,296.5 373.0,305.5 376.7,314.7 380.3,323.5 384.0,331.4 387.7,338.1 391.4,343.3 395.1,347.1 398.7,349.6 402.4,351.2 406.1,352.1 409.8,352.5 413.5,352.8 417.2,352.8 420.8,352.9 424.5,352.9 428.2,352.9 431.9,352.9 435.6,352.9 439.2,352.9 442.9,352.9 446.6,353.0 450.3,353.2 454.0,353.6 457.7,354.5 461.3,356.2 465.0,358.8 468.7,362.4 472.4,366.5 476.1,370.5 479.7,373.5 483.4,375.5 487.1,376.4 490.8,377.1 494.5,377.7 498.2,378.5 501.8,379.1 505.5,379.4 509.2,379.2 512.9,378.5 516.6,377.8 520.3,377.4 523.9,377.7 527.6,378.4 531.3,379.1 535.0,379.4 538.7,378.9 542.3,378.1 546.0,377.5 549.7,377.6 553.4,378.5 557.1,379.2 560.8,379.3 564.4,378.6 568.1,377.7 571.8,377.5 575.5,378.3 579.2,379.3 582.8,379.8 586.5,380.0 590.2,380.0 593.9,380.0 597.6,380.0 601.3,380.0 604.9,380.0 608.6,380.0 612.3,380.0 616.0,380.0 619.7,380.0 623.3,380.0 627.0,380.0 630.7,380.0 634.4,380.0 638.1,380.0 641.8,380.0 645.4,380.0 649.1,380.0 652.8,380.0 656.5,380.0 660.2,380.0 663.8,380.0 667.5,380.0 671.2,380.0 674.9,380.0 678.6,380.0 682.3,380.0 685.9,380.0 689.6,380.0 693.3,380.0 697.0,380.0 700.7,380.0 704.4,380.0 708.0,380.0 711.7,380.0 715.4,380.0 719.1,380.0 722.8,380.0 726.4,380.0 730.1,380.0 733.8,380.0 737.5,380.0 741.2,380.0 744.9,380.0 748.5,380.0 752.2,380.0 755.9,380.0 759.6,380.0 763.3,380.0 766.9,380.0 770.6,380.0 774.3,380.0 778.0,380.0 781.7,380.0 785.4,380.0 789.0,380.0 792.7,380.0 796.4,380.0 800.1,380.0 803.8,380.0 807.4,380.0 811.1,380.0 814.8,380.0 818.5,380.0 822.2,380.0 825.9,380.0 829.5,380.0 833.2,380.0 836.9,380.0 840.6,380.0 844.3,380.0 847.9,380.0 851.6,380.0 855.3,380.0 859.0,380.0 862.7,380.0 866.4,380.0 870.0,380.0 873.7,380.0 877.4,380.0 881.1,380.0 884.8,380.0 888.5,380.0 892.1,380.0 895.8,380.0 899.5,380.0 903.2,380.0 906.9,380.0 910.5,380.0 914.2,380.0 917.9,380.0 921.6,380.0 925.3,380.0 929.0,380.0 932.6,380.0 936.3,380.0 940.0,380.0" fill="none" stroke="#22c55e" stroke-width="2.2" opacity="0.9"/><polyline points="60.0,241.5 63.7,237.0 67.4,232.3 71.0,227.6 74.7,222.8 78.4,217.9 82.1,213.0 85.8,208.0 89.5,203.0 93.1,197.9 96.8,192.8 100.5,187.7 104.2,182.6 107.9,177.5 111.5,172.5 115.2,167.5 118.9,162.6 122.6,157.8 126.3,153.0 130.0,148.4 133.6,143.9 137.3,139.5 141.0,135.3 144.7,131.3 148.4,127.5 152.1,123.8 155.7,120.4 159.4,117.1 163.1,114.1 166.8,111.3 170.5,108.7 174.1,106.3 177.8,104.1 181.5,102.1 185.2,100.4 188.9,98.8 192.6,97.4 196.2,96.2 199.9,95.2 203.6,94.2 207.3,93.5 211.0,92.8 214.6,92.3 218.3,91.8 222.0,91.4 225.7,91.1 229.4,90.8 233.1,90.5 236.7,90.3 240.4,90.0 244.1,89.8 247.8,89.5 251.5,89.2 255.1,88.8 258.8,88.4 262.5,87.9 266.2,87.2 269.9,86.5 273.6,85.7 277.2,84.7 280.9,83.6 284.6,82.4 288.3,81.0 292.0,79.6 295.6,78.0 299.3,76.4 303.0,74.8 306.7,73.3 310.4,71.9 314.1,70.8 317.7,70.1 321.4,70.0 325.1,70.5 328.8,71.9 332.5,74.2 336.2,77.7 339.8,82.3 343.5,88.1 347.2,95.2 350.9,103.4 354.6,112.5 358.2,122.5 361.9,133.1 365.6,143.9 369.3,155.0 373.0,166.0 376.7,177.1 380.3,188.4 384.0,199.9 387.7,211.9 391.4,224.6 395.1,237.9 398.7,251.7 402.4,265.5 406.1,278.9 409.8,291.3 413.5,302.1 417.2,311.1 420.8,318.0 424.5,323.0 428.2,326.4 431.9,328.5 435.6,329.8 439.2,330.5 442.9,330.9 446.6,331.3 450.3,331.9 454.0,332.9 457.7,334.5 461.3,337.0 465.0,340.6 468.7,345.3 472.4,350.6 476.1,356.3 479.7,361.6 483.4,366.0 487.1,369.3 490.8,371.4 494.5,372.6 498.2,373.2 501.8,373.5 505.5,373.9 509.2,374.3 512.9,375.1 516.6,376.1 520.3,377.3 523.9,378.4 527.6,379.2 531.3,379.7 535.0,379.9 538.7,380.0 542.3,380.0 546.0,380.0 549.7,380.0 553.4,380.0 557.1,380.0 560.8,380.0 564.4,380.0 568.1,380.0 571.8,380.0 575.5,380.0 579.2,380.0 582.8,380.0 586.5,380.0 590.2,380.0 593.9,380.0 597.6,380.0 601.3,380.0 604.9,380.0 608.6,380.0 612.3,380.0 616.0,380.0 619.7,380.0 623.3,380.0 627.0,380.0 630.7,380.0 634.4,380.0 638.1,380.0 641.8,380.0 645.4,380.0 649.1,380.0 652.8,380.0 656.5,380.0 660.2,380.0 663.8,380.0 667.5,380.0 671.2,380.0 674.9,380.0 678.6,380.0 682.3,380.0 685.9,380.0 689.6,380.0 693.3,380.0 697.0,380.0 700.7,380.0 704.4,380.0 708.0,380.0 711.7,380.0 715.4,380.0 719.1,380.0 722.8,380.0 726.4,380.0 730.1,380.0 733.8,380.0 737.5,380.0 741.2,380.0 744.9,380.0 748.5,380.0 752.2,380.0 755.9,380.0 759.6,380.0 763.3,380.0 766.9,380.0 770.6,380.0 774.3,380.0 778.0,380.0 781.7,380.0 785.4,380.0 789.0,380.0 792.7,380.0 796.4,380.0 800.1,380.0 803.8,380.0 807.4,380.0 811.1,380.0 814.8,380.0 818.5,380.0 822.2,380.0 825.9,380.0 829.5,380.0 833.2,380.0 836.9,380.0 840.6,380.0 844.3,380.0 847.9,380.0 851.6,380.0 855.3,380.0 859.0,380.0 862.7,380.0 866.4,380.0 870.0,380.0 873.7,380.0 877.4,380.0 881.1,380.0 884.8,380.0 888.5,380.0 892.1,380.0 895.8,380.0 899.5,380.0 903.2,380.0 906.9,380.0 910.5,380.0 914.2,380.0 917.9,380.0 921.6,380.0 925.3,380.0 929.0,380.0 932.6,380.0 936.3,380.0 940.0,380.0" fill="none" stroke="#10b981" stroke-width="2.2" opacity="0.9"/><polyline points="60.0,253.8 63.7,250.3 67.4,246.8 71.0,243.2 74.7,239.5 78.4,235.8 82.1,232.0 85.8,228.2 89.5,224.3 93.1,220.4 96.8,216.5 100.5,212.5 104.2,208.5 107.9,204.5 111.5,200.5 115.2,196.5 118.9,192.5 122.6,188.6 126.3,184.7 130.0,180.8 133.6,177.0 137.3,173.2 141.0,169.5 144.7,165.9 148.4,162.5 152.1,159.1 155.7,155.8 159.4,152.7 163.1,149.6 166.8,146.8 170.5,144.0 174.1,141.5 177.8,139.0 181.5,136.8 185.2,134.6 188.9,132.7 192.6,130.9 196.2,129.2 199.9,127.8 203.6,126.4 207.3,125.2 211.0,124.1 214.6,123.2 218.3,122.4 222.0,121.6 225.7,121.0 229.4,120.5 233.1,120.0 236.7,119.6 240.4,119.3 244.1,119.0 247.8,118.8 251.5,118.6 255.1,118.4 258.8,118.3 262.5,118.1 266.2,117.9 269.9,117.7 273.6,117.4 277.2,117.1 280.9,116.8 284.6,116.3 288.3,115.8 292.0,115.1 295.6,114.3 299.3,113.3 303.0,112.0 306.7,110.6 310.4,108.8 314.1,106.8 317.7,104.5 321.4,101.8 325.1,98.9 328.8,95.7 332.5,92.2 336.2,88.6 339.8,84.9 343.5,81.3 347.2,77.9 350.9,74.8 354.6,72.4 358.2,70.7 361.9,70.0 365.6,70.5 369.3,72.4 373.0,75.7 376.7,80.6 380.3,87.0 384.0,94.9 387.7,104.0 391.4,114.3 395.1,125.3 398.7,136.7 402.4,148.5 406.1,160.3 409.8,172.2 413.5,184.2 417.2,196.4 420.8,208.9 424.5,221.9 428.2,235.4 431.9,249.2 435.6,262.9 439.2,276.0 442.9,288.0 446.6,298.4 450.3,306.9 454.0,313.4 457.7,318.1 461.3,321.3 465.0,323.3 468.7,324.6 472.4,325.5 476.1,326.5 479.7,327.8 483.4,329.8 487.1,332.8 490.8,336.9 494.5,342.1 498.2,348.0 501.8,354.2 505.5,360.0 509.2,364.9 512.9,368.6 516.6,371.1 520.3,372.5 523.9,373.2 527.6,373.6 531.3,373.9 535.0,374.2 538.7,374.8 542.3,375.7 546.0,376.7 549.7,377.8 553.4,378.8 557.1,379.4 560.8,379.8 564.4,379.9 568.1,380.0 571.8,380.0 575.5,380.0 579.2,380.0 582.8,380.0 586.5,380.0 590.2,380.0 593.9,380.0 597.6,380.0 601.3,380.0 604.9,380.0 608.6,380.0 612.3,380.0 616.0,380.0 619.7,380.0 623.3,380.0 627.0,380.0 630.7,380.0 634.4,380.0 638.1,380.0 641.8,380.0 645.4,380.0 649.1,380.0 652.8,380.0 656.5,380.0 660.2,380.0 663.8,380.0 667.5,380.0 671.2,380.0 674.9,380.0 678.6,380.0 682.3,380.0 685.9,380.0 689.6,380.0 693.3,380.0 697.0,380.0 700.7,380.0 704.4,380.0 708.0,380.0 711.7,380.0 715.4,380.0 719.1,380.0 722.8,380.0 726.4,380.0 730.1,380.0 733.8,380.0 737.5,380.0 741.2,380.0 744.9,380.0 748.5,380.0 752.2,380.0 755.9,380.0 759.6,380.0 763.3,380.0 766.9,380.0 770.6,380.0 774.3,380.0 778.0,380.0 781.7,380.0 785.4,380.0 789.0,380.0 792.7,380.0 796.4,380.0 800.1,380.0 803.8,380.0 807.4,380.0 811.1,380.0 814.8,380.0 818.5,380.0 822.2,380.0 825.9,380.0 829.5,380.0 833.2,380.0 836.9,380.0 840.6,380.0 844.3,380.0 847.9,380.0 851.6,380.0 855.3,380.0 859.0,380.0 862.7,380.0 866.4,380.0 870.0,380.0 873.7,380.0 877.4,380.0 881.1,380.0 884.8,380.0 888.5,380.0 892.1,380.0 895.8,380.0 899.5,380.0 903.2,380.0 906.9,380.0 910.5,380.0 914.2,380.0 917.9,380.0 921.6,380.0 925.3,380.0 929.0,380.0 932.6,380.0 936.3,380.0 940.0,380.0" fill="none" stroke="#3b82f6" stroke-width="2.2" opacity="0.9"/><polyline points="60.0,217.5 63.7,215.8 67.4,214.0 71.0,212.2 74.7,210.4 78.4,208.6 82.1,206.7 85.8,204.8 89.5,202.8 93.1,200.8 96.8,198.8 100.5,196.8 104.2,194.7 107.9,192.5 111.5,190.4 115.2,188.2 118.9,185.9 122.6,183.7 126.3,181.4 130.0,179.1 133.6,176.7 137.3,174.3 141.0,171.9 144.7,169.4 148.4,166.9 152.1,164.4 155.7,161.9 159.4,159.3 163.1,156.7 166.8,154.1 170.5,151.5 174.1,148.8 177.8,146.2 181.5,143.5 185.2,140.8 188.9,138.1 192.6,135.4 196.2,132.7 199.9,130.0 203.6,127.3 207.3,124.6 211.0,121.9 214.6,119.2 218.3,116.6 222.0,113.9 225.7,111.3 229.4,108.8 233.1,106.2 236.7,103.7 240.4,101.3 244.1,98.9 247.8,96.5 251.5,94.2 255.1,92.0 258.8,89.8 262.5,87.8 266.2,85.8 269.9,83.9 273.6,82.1 277.2,80.4 280.9,78.8 284.6,77.3 288.3,75.9 292.0,74.7 295.6,73.6 299.3,72.6 303.0,71.8 306.7,71.1 310.4,70.6 314.1,70.2 317.7,70.0 321.4,70.0 325.1,70.2 328.8,70.5 332.5,71.1 336.2,71.8 339.8,72.7 343.5,73.9 347.2,75.3 350.9,76.9 354.6,78.7 358.2,80.8 361.9,83.1 365.6,85.6 369.3,88.4 373.0,91.5 376.7,94.7 380.3,98.2 384.0,102.0 387.7,105.9 391.4,110.1 395.1,114.5 398.7,119.0 402.4,123.7 406.1,128.6 409.8,133.5 413.5,138.5 417.2,143.6 420.8,148.7 424.5,153.8 428.2,158.8 431.9,163.7 435.6,168.4 439.2,173.1 442.9,177.5 446.6,181.7 450.3,185.8 454.0,189.6 457.7,193.2 461.3,196.6 465.0,199.8 468.7,202.9 472.4,206.0 476.1,209.0 479.7,212.0 483.4,215.1 487.1,218.4 490.8,221.9 494.5,225.6 498.2,229.7 501.8,234.1 505.5,238.8 509.2,243.9 512.9,249.2 516.6,254.8 520.3,260.5 523.9,266.2 527.6,271.9 531.3,277.4 535.0,282.5 538.7,287.3 542.3,291.6 546.0,295.3 549.7,298.5 553.4,301.1 557.1,303.2 560.8,304.9 564.4,306.2 568.1,307.1 571.8,307.9 575.5,308.7 579.2,309.4 582.8,310.4 586.5,311.6 590.2,313.2 593.9,315.3 597.6,318.0 601.3,321.4 604.9,325.4 608.6,330.1 612.3,335.1 616.0,340.3 619.7,345.5 623.3,350.2 627.0,354.4 630.7,357.8 634.4,360.4 638.1,362.3 641.8,363.6 645.4,364.4 649.1,364.8 652.8,365.0 656.5,365.1 660.2,365.2 663.8,365.2 667.5,365.2 671.2,365.2 674.9,365.2 678.6,365.2 682.3,365.2 685.9,365.2 689.6,365.2 693.3,365.2 697.0,365.2 700.7,365.2 704.4,365.2 708.0,365.2 711.7,365.2 715.4,365.2 719.1,365.2 722.8,365.2 726.4,365.2 730.1,365.2 733.8,365.2 737.5,365.3 741.2,365.4 744.9,365.7 748.5,366.4 752.2,367.8 755.9,369.9 759.6,372.4 763.3,374.5 766.9,376.0 770.6,377.0 774.3,377.7 778.0,378.4 781.7,378.8 785.4,378.5 789.0,378.0 792.7,377.7 796.4,378.1 800.1,378.7 803.8,378.7 807.4,378.2 811.1,377.7 814.8,378.0 818.5,378.6 822.2,378.7 825.9,378.1 829.5,377.8 833.2,378.3 836.9,379.3 840.6,379.8 844.3,380.0 847.9,380.0 851.6,380.0 855.3,380.0 859.0,380.0 862.7,380.0 866.4,380.0 870.0,380.0 873.7,380.0 877.4,380.0 881.1,380.0 884.8,380.0 888.5,380.0 892.1,380.0 895.8,380.0 899.5,380.0 903.2,380.0 906.9,380.0 910.5,380.0 914.2,380.0 917.9,380.0 921.6,380.0 925.3,380.0 929.0,380.0 932.6,380.0 936.3,380.0 940.0,380.0" fill="none" stroke="#06b6d4" stroke-width="2.2" opacity="0.9"/><polyline points="60.0,301.7 63.7,300.6 67.4,299.5 71.0,298.4 74.7,297.2 78.4,296.0 82.1,294.8 85.8,293.6 89.5,292.4 93.1,291.1 96.8,289.8 100.5,288.5 104.2,287.1 107.9,285.8 111.5,284.4 115.2,283.0 118.9,281.6 122.6,280.1 126.3,278.7 130.0,277.2 133.6,275.7 137.3,274.1 141.0,272.6 144.7,271.0 148.4,269.4 152.1,267.9 155.7,266.2 159.4,264.6 163.1,263.0 166.8,261.4 170.5,259.7 174.1,258.1 177.8,256.4 181.5,254.8 185.2,253.1 188.9,251.5 192.6,249.8 196.2,248.2 199.9,246.5 203.6,244.9 207.3,243.3 211.0,241.7 214.6,240.2 218.3,238.6 222.0,237.1 225.7,235.6 229.4,234.1 233.1,232.7 236.7,231.3 240.4,230.0 244.1,228.6 247.8,227.4 251.5,226.1 255.1,225.0 258.8,223.8 262.5,222.7 266.2,221.7 269.9,220.7 273.6,219.8 277.2,218.9 280.9,218.1 284.6,217.3 288.3,216.6 292.0,216.0 295.6,215.3 299.3,214.8 303.0,214.3 306.7,213.8 310.4,213.4 314.1,213.0 317.7,212.7 321.4,212.4 325.1,212.1 328.8,211.9 332.5,211.7 336.2,211.5 339.8,211.3 343.5,211.2 347.2,211.1 350.9,211.0 354.6,210.9 358.2,210.9 361.9,210.8 365.6,210.8 369.3,210.8 373.0,210.7 376.7,210.7 380.3,210.7 384.0,210.6 387.7,210.6 391.4,210.5 395.1,210.5 398.7,210.4 402.4,210.3 406.1,210.1 409.8,210.0 413.5,209.7 417.2,209.4 420.8,208.9 424.5,208.4 428.2,207.6 431.9,206.6 435.6,205.3 439.2,203.7 442.9,201.7 446.6,199.1 450.3,196.0 454.0,192.1 457.7,187.4 461.3,181.8 465.0,175.3 468.7,167.7 472.4,159.2 476.1,149.7 479.7,139.5 483.4,128.6 487.1,117.5 490.8,106.5 494.5,96.0 498.2,86.6 501.8,78.8 505.5,73.2 509.2,70.1 512.9,70.0 516.6,73.1 520.3,79.4 523.9,88.9 527.6,101.4 531.3,116.6 535.0,134.0 538.7,153.2 542.3,173.7 546.0,194.9 549.7,216.4 553.4,237.4 557.1,257.4 560.8,275.9 564.4,292.3 568.1,306.2 571.8,317.6 575.5,326.5 579.2,333.0 582.8,337.5 586.5,340.4 590.2,342.2 593.9,343.2 597.6,343.7 601.3,344.0 604.9,344.3 608.6,344.5 612.3,344.9 616.0,345.7 619.7,346.9 623.3,348.9 627.0,351.6 630.7,355.1 634.4,359.4 638.1,364.0 641.8,368.4 645.4,372.3 649.1,375.3 652.8,377.3 656.5,378.3 660.2,378.7 663.8,378.5 667.5,378.1 671.2,377.7 674.9,377.6 678.6,377.9 682.3,378.4 685.9,379.0 689.6,379.5 693.3,379.8 697.0,379.9 700.7,380.0 704.4,380.0 708.0,380.0 711.7,380.0 715.4,379.8 719.1,379.6 722.8,379.1 726.4,378.4 730.1,377.8 733.8,377.7 737.5,378.2 741.2,379.0 744.9,379.6 748.5,379.9 752.2,380.0 755.9,380.0 759.6,380.0 763.3,379.9 766.9,379.5 770.6,378.8 774.3,377.9 778.0,377.7 781.7,378.3 785.4,379.3 789.0,379.8 792.7,380.0 796.4,380.0 800.1,380.0 803.8,379.7 807.4,378.9 811.1,377.9 814.8,377.8 818.5,378.8 822.2,379.7 825.9,380.0 829.5,380.0 833.2,380.0 836.9,380.0 840.6,380.0 844.3,380.0 847.9,380.0 851.6,380.0 855.3,380.0 859.0,380.0 862.7,380.0 866.4,380.0 870.0,380.0 873.7,380.0 877.4,380.0 881.1,380.0 884.8,380.0 888.5,380.0 892.1,380.0 895.8,380.0 899.5,380.0 903.2,380.0 906.9,380.0 910.5,380.0 914.2,380.0 917.9,380.0 921.6,380.0 925.3,380.0 929.0,380.0 932.6,380.0 936.3,380.0 940.0,380.0" fill="none" stroke="#ef4444" stroke-width="2.2" opacity="0.9"/><text x="500" y="414" text-anchor="middle" class="axis-label">Latency (ms, log scale)</text><text x="30" y="220" text-anchor="middle" class="axis-label" transform="rotate(-90 30 220)">Relative density</text><text x="30" y="446" class="footer">Reconstructed from wrk percentiles (min/p50/p75/p90/p99/p99.9/p99.99/p99.999/max), not raw per-request samples - shape is representative, not exact.</text></svg>
